<?xml version="1.0" standalone="no"?>
<!DOCTYPE svg PUBLIC "-//W3C//DTD SVG 1.1//EN" "http://www.w3.org/Graphics/SVG/1.1/DTD/svg11.dtd" >
<svg xmlns="http://www.w3.org/2000/svg">
<metadata></metadata>
<defs>
<font id="akzidenz_gr_ltbold" horiz-adv-x="1138" >
<font-face units-per-em="2048" ascent="1638" descent="-410" />
<missing-glyph horiz-adv-x="569" />
<glyph horiz-adv-x="0" />
<glyph unicode="&#xd;" horiz-adv-x="569" />
<glyph unicode=" "  horiz-adv-x="569" />
<glyph unicode="&#x09;" horiz-adv-x="569" />
<glyph unicode="&#xa0;" horiz-adv-x="569" />
<glyph unicode="!" horiz-adv-x="532" d="M129 0v283h274v-283h-274zM129 893v565h274v-565l-79 -518h-115z" />
<glyph unicode="&#x22;" horiz-adv-x="796" d="M141 889v569h193v-569h-193zM463 889v569h192v-569h-192z" />
<glyph unicode="#" d="M59 387v180h199l37 258h-172v181h199l55 387h194l-55 -387h197l55 387h195l-56 -387h172v-181h-198l-37 -258h172v-180h-199l-55 -387h-195l56 387h-197l-55 -387h-195l55 387h-172zM453 567h196l37 258h-197z" />
<glyph unicode="$" d="M51 211l213 160q66 -135 223 -166v411q-217 82 -284 138q-123 96 -123 276q0 168 127 279q117 104 280 108v228h181v-228q109 -4 222.5 -69.5t172.5 -165.5l-189 -148q-86 137 -206 154v-340q205 -63 293 -137q127 -104 126 -291q0 -201 -145 -330q-125 -109 -274 -115 v-241h-181v241q-270 11 -436 236zM354 1044q0 -108 133 -143v287q-133 -25 -133 -144zM668 205q61 20 103 70.5t42 115.5q0 125 -145 166v-352z" />
<glyph unicode="%" horiz-adv-x="2048" d="M236 1047q0 166 85.5 268t245.5 102t246 -102.5t86 -267.5q0 -166 -84 -265q-88 -106 -248 -106t-248 106q-84 98 -83 265zM440 1047q0 -215 127 -216q127 0 127 216q0 215 -127 215t-127 -215zM508 -78l852 1548h178l-852 -1548h-178zM1149 346q0 166 86 268.5 t246 102.5t245.5 -102.5t85.5 -268.5t-83 -264q-88 -106 -248 -107q-160 0 -248 107q-84 98 -84 264zM1354 346q0 -215 127 -215t127 215t-127 215t-127 -215z" />
<glyph unicode="&#x26;" horiz-adv-x="1290" d="M59 397q0 135 97 258q84 106 213 170q-72 115 -72 215q0 150 103.5 245t256.5 95q147 0 237.5 -86t90.5 -221q0 -127 -78 -213q-63 -68 -194 -123l186 -284q33 39 62 116q25 72 24 113h229q0 -63 -38 -174q-51 -150 -138 -236q76 -68 131 -67q35 0 62 6v-199 q-49 -12 -121 -12q-150 0 -236 86q-176 -111 -356 -111q-199 0 -325 111q-133 117 -134 311zM309 408q0 -102 70 -162q61 -53 156 -53q114 -1 200 81l-246 363q-78 -25 -129 -87.5t-51 -141.5zM547 1075q0 -72 65 -153q156 31 156 149q0 51 -31 84t-82 33q-53 0 -80.5 -35 t-27.5 -78z" />
<glyph unicode="'" horiz-adv-x="569" d="M188 889v569h193v-569h-193z" />
<glyph unicode="(" horiz-adv-x="720" d="M100 614q0 276 133 502q123 207 379 404l66 -101q-158 -150 -238 -387q-66 -201 -65 -418q0 -217 65 -417q80 -238 238 -387l-66 -101q-256 197 -379 404q-133 225 -133 501z" />
<glyph unicode=")" horiz-adv-x="720" d="M43 -190q158 150 238 387q66 201 65 417q0 217 -65 418q-80 238 -238 387l66 101q256 -197 378 -404q133 -225 134 -502q0 -276 -134 -501q-122 -207 -378 -404z" />
<glyph unicode="*" horiz-adv-x="720" d="M45 1176l45 139l193 -62v205h153v-205l191 62l49 -139l-193 -62l123 -170l-123 -88l-123 176l-122 -176l-119 88l119 170z" />
<glyph unicode="+" horiz-adv-x="1228" d="M96 416v205h416v415h205v-415h416v-205h-416v-416h-205v416h-416z" />
<glyph unicode="," horiz-adv-x="569" d="M147 0v283h275v-338q0 -197 -260 -232v125q104 10 104 99v63h-119z" />
<glyph unicode="-" horiz-adv-x="681" d="M86 483v230h510v-230h-510z" />
<glyph unicode="." horiz-adv-x="569" d="M147 0v283h275v-283h-275z" />
<glyph unicode="/" horiz-adv-x="948" d="M16 -37l693 1532h223l-692 -1532h-224z" />
<glyph unicode="0" d="M61 696q0 342 123 527q131 194 385 194t385 -194q123 -184 123 -527q0 -342 -123 -526q-131 -195 -385 -195t-385 195q-123 184 -123 526zM336 696q0 -492 233 -491q233 0 234 491q-1 492 -234 492t-233 -492z" />
<glyph unicode="1" d="M190 969v168h41q172 0 252 69q61 55 90 187h205v-1393h-250v831q0 78 -20.5 108t-95.5 30h-222z" />
<glyph unicode="2" d="M98 0v217q217 131 394 307q242 244 241 439q0 213 -186 213q-199 -1 -199 -316l-250 19q0 250 113 389q123 150 367 149q199 0 320.5 -117.5t121.5 -314.5q0 -168 -96 -315q-74 -113 -226 -242q-129 -106 -260 -211h602v-217h-942z" />
<glyph unicode="3" d="M76 455h262q0 -250 229 -250q96 0 152.5 59.5t56.5 155.5q0 207 -205 207h-100v217h100q182 0 183 155q0 188 -185 189q-176 0 -196 -240l-273 58q70 412 490 411q184 0 305 -92q133 -102 133 -281q0 -233 -229 -292v-4q262 -61 264 -345q0 -205 -152 -321 q-139 -106 -352 -107q-483 0 -483 480z" />
<glyph unicode="4" d="M49 319v193l610 881h256v-856h175v-218h-175v-319h-249v319h-617zM311 537h355v561h-4z" />
<glyph unicode="5" d="M68 385l286 23q2 -90 56.5 -152.5t144.5 -62.5q117 0 178 88q51 78 51 198q0 262 -233 262q-139 0 -199 -133l-237 19l98 766h778l-26 -242h-539l-43 -291q111 98 250 98q213 0 330 -141q109 -129 108 -336q0 -233 -145.5 -369.5t-372.5 -136.5q-207 0 -336 101 q-141 109 -149 309z" />
<glyph unicode="6" d="M88 662q0 342 129 542q137 213 391 213q369 0 428 -354l-264 -35q-12 160 -166 160q-133 0 -196 -150q-47 -113 -48 -274h5q88 129 272 129q193 0 302.5 -126t109.5 -333q0 -197 -130 -328t-335 -131q-498 0 -498 687zM383 434q0 -229 203 -229t202 229q1 230 -202 230 t-203 -230z" />
<glyph unicode="7" d="M121 1139v254h919v-230q-160 -154 -301 -487q-147 -352 -172 -676h-336q76 596 510 1139h-620z" />
<glyph unicode="8" d="M51 403q0 217 213 324q-80 41 -127 121q-45 74 -45 156q0 215 148 321q126 92 329 92t330 -92q147 -106 148 -321q0 -82 -46 -156q-47 -80 -127 -121q213 -106 213 -324q0 -213 -167 -329q-143 -98 -351 -99q-207 0 -350 99q-168 117 -168 329zM338 403q0 -199 231 -198 q231 0 232 198q0 199 -232 199q-231 0 -231 -199zM367 1004q0 -184 202 -185q203 0 203 185q0 184 -203 184q-202 0 -202 -184z" />
<glyph unicode="9" d="M88 958q0 197 130 328t335 131q498 0 498 -686q0 -342 -129 -543q-137 -213 -392 -213q-369 1 -428 355l265 35q14 -160 165 -160q133 0 197 151q47 111 47 273h-4q-88 -129 -272 -129q-193 0 -302.5 126t-109.5 332zM350 958q0 -229 203 -229t203 229t-203 230 q-203 0 -203 -230z" />
<glyph unicode=":" horiz-adv-x="569" d="M147 0v283h275v-283h-275zM147 766v283h275v-283h-275z" />
<glyph unicode=";" horiz-adv-x="569" d="M147 0v283h275v-338q0 -197 -260 -232v125q104 10 104 99v63h-119zM147 766v283h275v-283h-275z" />
<glyph unicode="&#x3c;" horiz-adv-x="1228" d="M96 440v156l1037 457v-217l-760 -318l760 -317v-217z" />
<glyph unicode="=" horiz-adv-x="1228" d="M96 201v205h1037v-205h-1037zM96 631v205h1037v-205h-1037z" />
<glyph unicode="&#x3e;" horiz-adv-x="1228" d="M96 -16v217l760 317l-760 318v217l1037 -457v-156z" />
<glyph unicode="?" horiz-adv-x="1175" d="M80 1010q8 225 145 355t363 130q203 0 342 -115q145 -123 145 -319q0 -143 -74 -242q-53 -68 -192 -166q-106 -74 -107 -202v-76h-229v117q0 123 21 182q27 84 116.5 142t120.5 91q57 61 57 144q0 88 -61 145t-158 57q-227 0 -239 -278zM451 0v283h274v-283h-274z" />
<glyph unicode="@" horiz-adv-x="1638" d="M78 731q0 322 227 543t549 221q287 0 492 -174q215 -180 215 -455q0 -270 -191 -450q-158 -147 -311 -148q-117 0 -123 127h-4q-119 -127 -240 -127q-145 0 -231 105q-80 96 -80 241q0 225 129 380t313 155q182 0 252 -148l35 119h170l-141 -542q-16 -63 -17 -86 q0 -43 41 -43q88 0 165 113.5t77 271.5q0 233 -162 372q-154 133 -391 133q-262 0 -428 -176t-166 -438q0 -264 172 -435t432 -171q301 0 469 184h162q-221 -340 -639 -340q-338 0 -557 216t-219 552zM586 606q0 -72 34.5 -114.5t96.5 -42.5q123 0 209 116q80 106 80 223 q0 84 -41 132.5t-109 48.5q-117 0 -193.5 -111t-76.5 -252z" />
<glyph unicode="A" horiz-adv-x="1290" d="M-2 0l487 1458h320l487 -1458h-286l-84 283h-553l-84 -283h-287zM442 524h406l-201 668h-4z" />
<glyph unicode="B" horiz-adv-x="1366" d="M133 0v1458h686q188 0 305 -90q127 -98 127 -272q0 -248 -247 -295v-4q145 -14 231 -123q82 -100 82 -238q0 -252 -168 -354q-131 -82 -395 -82h-621zM408 242h356q266 0 266 202q0 223 -268 224h-354v-426zM408 872h325q231 0 232 187q0 182 -232 182h-325v-369z" />
<glyph unicode="C" horiz-adv-x="1402" d="M80 729q0 322 186 537q195 229 512 229q225 0 377 -115q158 -121 209 -344l-264 -67q-16 121 -106.5 196.5t-215.5 75.5q-203 0 -315 -160q-96 -141 -96 -352t96 -350q113 -162 315 -162q260 0 352 295l250 -115q-174 -434 -602 -434q-334 0 -524 230q-174 209 -174 536z " />
<glyph unicode="D" horiz-adv-x="1441" d="M133 0v1458h512q362 0 547 -207q170 -190 170 -522q0 -356 -170 -542.5t-496 -186.5h-563zM408 254h249q215 0 312 96q106 109 106 379q0 475 -424 475h-243v-950z" />
<glyph unicode="E" horiz-adv-x="1251" d="M133 0v1458h1032v-254h-757v-332h696v-241h-696v-377h811v-254h-1086z" />
<glyph unicode="F" horiz-adv-x="1099" d="M133 0v1458h959v-254h-684v-348h598v-242h-598v-614h-275z" />
<glyph unicode="G" horiz-adv-x="1517" d="M80 729q0 322 186 537q195 229 512 229q451 0 621 -428l-256 -104q-74 278 -363 278h-2q-203 0 -315 -160q-96 -141 -96 -352t96 -350q113 -162 315 -162q150 0 260.5 95.5t110.5 242.5h-361v242h611v-797h-238v125q-70 -78 -180 -121q-100 -41 -203 -41q-334 0 -524 230 q-174 209 -174 536z" />
<glyph unicode="H" horiz-adv-x="1441" d="M133 0v1458h275v-547h626v547h275v-1458h-275v657h-626v-657h-275z" />
<glyph unicode="I" horiz-adv-x="569" d="M147 0v1458h275v-1458h-275z" />
<glyph unicode="J" horiz-adv-x="796" d="M25 -18v264q37 -16 143 -17q207 0 207 187v1042h274v-1145q0 -184 -151 -276q-121 -74 -291 -74q-86 0 -182 19z" />
<glyph unicode="K" horiz-adv-x="1327" d="M133 0v1458h275v-655l577 655h326l-477 -553l509 -905h-317l-385 682l-233 -264v-418h-275z" />
<glyph unicode="L" horiz-adv-x="1024" d="M133 0v1458h275v-1204h591v-254h-866z" />
<glyph unicode="M" horiz-adv-x="1630" d="M133 0v1458h420l266 -1130h4l267 1130h407v-1458h-262v1217h-4l-287 -1217h-258l-287 1217h-4v-1217h-262z" />
<glyph unicode="N" horiz-adv-x="1404" d="M143 0v1458h252l613 -1038h4v1038h250v-1458h-252l-613 1038h-4v-1038h-250z" />
<glyph unicode="O" horiz-adv-x="1556" d="M80 729q0 322 186 537q195 229 512 229t512 -229q186 -215 187 -537q0 -322 -187 -536q-195 -229 -512 -230q-317 0 -512 230q-186 215 -186 536zM367 729q0 -211 96 -350q113 -162 315 -162q203 0 316 162q96 139 96 350t-96 352q-113 160 -316 160t-315 -160 q-96 -141 -96 -352z" />
<glyph unicode="P" horiz-adv-x="1251" d="M133 0v1458h580q248 0 383 -139q127 -131 127 -352q0 -215 -136.5 -345t-355.5 -130h-323v-492h-275zM408 721h272q125 0 192 70q63 63 64 176q0 262 -266 262h-262v-508z" />
<glyph unicode="Q" horiz-adv-x="1593" d="M80 729q0 322 186 537q195 229 512 229t512 -229q186 -215 187 -537q0 -242 -117 -434q100 -115 256 -115l-78 -256q-209 59 -332 191q-178 -152 -428 -152q-317 0 -512 230q-186 215 -186 536zM367 729q0 -211 96 -350q113 -162 315 -162q203 0 316 162q96 139 96 350 t-96 352q-113 160 -316 160t-315 -160q-96 -141 -96 -352z" />
<glyph unicode="R" horiz-adv-x="1290" d="M133 0v1458h608q227 0 363 -125q129 -119 129 -315q0 -319 -289 -430l326 -588h-318l-282 537h-262v-537h-275zM408 778h299q106 0 172.5 59.5t66.5 159.5q0 219 -280 220h-258v-439z" />
<glyph unicode="S" horiz-adv-x="1327" d="M0 270l233 168q150 -221 441 -221q121 0 205 41q104 49 104 145q0 80 -78 123q-57 33 -223 70l-162 37q-209 47 -307 123q-131 100 -131 284q0 215 180 342q160 113 385 113q387 0 608 -293l-227 -172q-111 211 -383 211q-121 0 -198.5 -43t-77.5 -119q0 -82 88 -125 q55 -27 213 -61l178 -39q195 -43 293 -121q129 -102 129 -291q0 -246 -205 -372q-172 -106 -434 -107q-188 0 -355 78q-176 82 -276 229z" />
<glyph unicode="T" horiz-adv-x="1101" d="M14 1204v254h1073v-254h-399v-1204h-274v1204h-400z" />
<glyph unicode="U" horiz-adv-x="1441" d="M133 449v1009h275v-938q0 -291 313 -291t313 291v938h275v-1009q0 -221 -161 -353.5t-427 -132.5t-427 132t-161 354z" />
<glyph unicode="V" horiz-adv-x="1216" d="M-2 1458h287l321 -1163h4l322 1163h287l-426 -1458h-369z" />
<glyph unicode="W" horiz-adv-x="1708" d="M18 1458h277l201 -1139h8l221 1139h274l215 -1126h5l194 1126h277l-299 -1458h-320l-215 1049h-4l-215 -1049h-320z" />
<glyph unicode="X" horiz-adv-x="1327" d="M12 0l488 788l-416 670h317l263 -422l262 422h317l-416 -670l488 -788h-316l-335 543l-336 -543h-316z" />
<glyph unicode="Y" horiz-adv-x="1290" d="M23 1458h305l317 -602l318 602h305l-486 -889v-569h-274v569z" />
<glyph unicode="Z" horiz-adv-x="1214" d="M39 0v242l786 975h-719v241h1070v-241l-785 -975h785v-242h-1137z" />
<glyph unicode="[" horiz-adv-x="720" d="M137 -229v1687h541v-205h-279v-1278h279v-204h-541z" />
<glyph unicode="\" horiz-adv-x="948" d="M16 1495h224l692 -1532h-223z" />
<glyph unicode="]" horiz-adv-x="720" d="M43 -25h279v1278h-279v205h541v-1687h-541v204z" />
<glyph unicode="^" horiz-adv-x="1228" d="M117 565l407 828h181l407 -828h-215l-283 586l-282 -586h-215z" />
<glyph unicode="_" horiz-adv-x="1024" d="M0 -154h1024v-102h-1024v102z" />
<glyph unicode="`" horiz-adv-x="493" d="M-59 1458h274l186 -295h-170z" />
<glyph unicode="a" horiz-adv-x="1099" d="M49 301q0 262 316 324l104 20q104 20 270 62v30q0 131 -196 131q-109 0 -151 -34.5t-42 -120.5l-250 10q0 170 136 260q119 78 307 78q203 0 307 -60q139 -79 139 -280v-547q0 -113 39 -174h-264q-25 37 -25 94q-147 -119 -338 -119q-152 0 -252 89.5t-100 236.5z M311 309q0 -57 46 -93t116 -36q100 0 176 45q90 54 90 146v147q-41 -20 -118 -37l-138 -28q-86 -18 -121 -43q-51 -33 -51 -101z" />
<glyph unicode="b" horiz-adv-x="1175" d="M123 0v1458h250v-510q123 113 295 113q197 0 323.5 -158t126.5 -385t-127 -385t-323 -158q-186 0 -291 125h-4v-100h-250zM365 518q0 -131 53 -213q63 -100 192 -100t195 100q51 82 51 213t-51 213q-66 100 -195 100t-192 -100q-53 -82 -53 -213z" />
<glyph unicode="c" horiz-adv-x="1062" d="M57 518q0 238 142.5 390.5t388.5 152.5q317 0 438 -295l-219 -100q-25 76 -85 120.5t-134 44.5q-127 0 -201 -96q-68 -88 -68 -217q0 -131 62 -217q70 -96 192 -96q170 0 252 201l213 -113q-145 -317 -469 -318q-233 0 -374 156q-137 150 -138 387z" />
<glyph unicode="d" horiz-adv-x="1175" d="M57 518q0 227 127 385t324 158q172 0 295 -113v510h250v-1458h-250v100h-4q-104 -125 -291 -125q-197 0 -324 158t-127 385zM319 518q0 -131 54 -213q63 -100 192 -100t195 100q51 82 51 213t-51 213q-66 100 -195 100t-192 -100q-53 -82 -54 -213z" />
<glyph unicode="e" d="M57 518q0 238 142.5 390.5t388.5 152.5q497 0 497 -602h-766q2 -111 87 -185q75 -69 179 -69h3q195 0 299 147l211 -123q-166 -254 -510 -254q-246 0 -391 156q-139 150 -140 387zM319 651h504q0 59 -55 123q-70 82 -180 82q-104 0 -176.5 -58.5t-92.5 -146.5z" />
<glyph unicode="f" horiz-adv-x="645" d="M10 856v180h152v164q0 258 305 258q86 0 168 -6v-217q-39 6 -82 6q-141 0 -141 -131v-74h223v-180h-223v-856h-250v856h-152z" />
<glyph unicode="g" horiz-adv-x="1175" d="M57 557q0 229 127 366.5t324 137.5q186 0 291 -125h4v100h250v-1013q0 -207 -152 -295q-125 -72 -387 -72q-221 0 -334 113q-88 88 -88 208h262q33 -129 213 -129q236 0 236 209v111q-106 -115 -295 -115q-197 0 -324 137.5t-127 366.5zM319 557q0 -102 54 -178 q66 -96 192 -96q127 0 195 96q51 76 51 178t-51 178q-68 96 -195 96t-192 -96q-53 -76 -54 -178z" />
<glyph unicode="h" horiz-adv-x="1175" d="M123 0v1458h250v-524h4q98 127 297 127q160 0 256 -74q123 -96 123 -301v-686h-250v614q0 205 -185 205q-129 0 -192 -96q-53 -76 -53 -191v-532h-250z" />
<glyph unicode="i" horiz-adv-x="495" d="M123 0v1036h250v-1036h-250zM123 1204v254h250v-254h-250z" />
<glyph unicode="j" horiz-adv-x="495" d="M-6 -115h10q119 0 119 86v1065h250v-1149q0 -231 -346 -231h-33v229zM123 1204v254h250v-254h-250z" />
<glyph unicode="k" horiz-adv-x="1099" d="M123 0v1458h250v-811l393 389h324l-402 -403l440 -633h-305l-309 465l-141 -139v-326h-250z" />
<glyph unicode="l" horiz-adv-x="495" d="M123 0v1458h250v-1458h-250z" />
<glyph unicode="m" horiz-adv-x="1781" d="M123 0v1036h250v-102q123 127 299 127q236 0 305 -156q117 156 319 156q362 0 363 -332v-729h-250v629q0 202 -168 202h-2q-100 0 -161.5 -83.5t-61.5 -200.5v-547h-250v629q0 202 -172 202h-2q-98 0 -158.5 -84.5t-60.5 -199.5v-547h-250z" />
<glyph unicode="n" d="M123 0v1036h250v-102h4q104 127 282 127q356 0 357 -352v-709h-250v633q0 186 -172 186q-96 0 -156 -65q-66 -72 -65 -207v-547h-250z" />
<glyph unicode="o" horiz-adv-x="1175" d="M57 518q0 238 142.5 390.5t388.5 152.5t391 -156q139 -150 139 -387q0 -238 -139 -387q-145 -156 -391 -156t-391 156q-139 150 -140 387zM319 518q0 -129 68 -217q74 -96 201 -96t200 96q68 88 68 217t-68 217q-73 96 -200 96t-201 -96q-68 -88 -68 -217z" />
<glyph unicode="p" horiz-adv-x="1175" d="M123 -332v1368h250v-88h4q123 113 295 113q195 0 320.5 -158t125.5 -385t-127 -385t-323 -158q-184 0 -295 125v-432h-250zM365 518q0 -131 53 -213q63 -100 192 -100t195 100q51 82 51 213t-51 213q-66 100 -195 100t-192 -100q-53 -82 -53 -213z" />
<glyph unicode="q" horiz-adv-x="1175" d="M57 518q0 227 126 385t321 158q100 0 170 -29q53 -23 125 -84h4v88h250v-1368h-250v432h-4q-96 -125 -287 -125q-199 0 -328 160q-127 154 -127 383zM319 518q0 -131 54 -213q63 -100 192 -100t195 100q51 82 51 213t-51 213q-66 100 -195 100t-192 -100 q-53 -82 -54 -213z" />
<glyph unicode="r" horiz-adv-x="720" d="M123 0v1036h250v-143h4q84 168 319 168v-254q-141 0 -225 -68q-98 -80 -98 -237v-502h-250z" />
<glyph unicode="s" horiz-adv-x="1024" d="M31 164l188 145q88 -129 299 -129q84 0 146 39q55 37 55 82q0 68 -166 100q-248 51 -309 78q-166 76 -166 246q0 168 133 256q121 80 326 80q276 -1 428 -189l-174 -163q-66 145 -261 147h-7q-183 0 -183 -100q0 -70 170 -103q256 -47 313 -73q170 -74 170 -242 q0 -176 -141 -275q-127 -88 -320 -88q-336 0 -501 189z" />
<glyph unicode="t" horiz-adv-x="645" d="M10 856v180h152v367h250v-367h223v-180h-223v-524q0 -68 20 -94q25 -33 92 -33l111 12v-205q-114 -24 -193 -24h-6q-274 0 -274 250v618h-152z" />
<glyph unicode="u" horiz-adv-x="1175" d="M123 350v686h250v-614q0 -205 184 -205q129 0 195 84q51 70 51 178v557h250v-1036h-250v102h-4q-98 -127 -297 -127q-160 0 -256 74q-123 96 -123 301z" />
<glyph unicode="v" horiz-adv-x="950" d="M2 1036h264l207 -717h4l207 717h264l-342 -1036h-262z" />
<glyph unicode="w" horiz-adv-x="1519" d="M16 1036h258l175 -704h4l194 704h225l195 -704h4l174 704h258l-299 -1036h-246l-196 694h-4l-197 -694h-246z" />
<glyph unicode="x" horiz-adv-x="987" d="M-10 0l358 559l-311 477h291l166 -254l165 254h291l-311 -477l358 -559h-299l-204 328l-205 -328h-299z" />
<glyph unicode="y" horiz-adv-x="948" d="M0 1036h268l224 -753h4l194 753h258l-340 -1128q-43 -141 -114.5 -196.5t-208.5 -55.5q-70 0 -150 14v224q49 -8 98 -9q59 0 87 18.5t53 69.5z" />
<glyph unicode="z" horiz-adv-x="985" d="M53 0v193l549 626h-491v217h821v-192l-543 -627h543v-217h-879z" />
<glyph unicode="{" horiz-adv-x="720" d="M92 543v143q143 0 144 186v349q0 133 59 185t203 52h168v-143h-78q-102 0 -103 -111v-358q0 -197 -186 -230v-4q186 -33 186 -229v-358q0 -111 103 -111h78v-143h-168q-143 0 -202.5 52t-59.5 185v348q0 186 -144 187z" />
<glyph unicode="|" horiz-adv-x="454" d="M125 -37v1532h205v-1532h-205z" />
<glyph unicode="}" horiz-adv-x="720" d="M55 -86h78q102 0 103 111v358q0 197 186 229v4q-186 33 -186 230v358q0 111 -103 111h-78v143h168q143 0 202.5 -52t59.5 -185v-349q0 -186 144 -186v-143q-143 0 -144 -187v-348q0 -133 -59 -185t-203 -52h-168v143z" />
<glyph unicode="~" horiz-adv-x="1228" d="M141 514q92 176 256 176q78 0 228 -65q168 -74 217 -74q76 0 172 147l73 -176q-92 -176 -256 -176q-78 0 -227 66q-168 74 -217 73q-76 0 -172 -147z" />
<glyph unicode="&#xa1;" horiz-adv-x="532" d="M129 258l80 518h115l79 -518v-565h-274v565zM129 868v283h274v-283h-274z" />
<glyph unicode="&#xa2;" d="M80 518q0 213 114.5 362.5t319.5 180.5v229h168v-229q256 -25 367 -295l-220 -100q-37 117 -147 153v-600q106 41 164 187l213 -113q-59 -135 -162.5 -220t-214.5 -98v-229h-168v229q-205 33 -321 185q-113 145 -113 358zM342 518q0 -100 43 -178q45 -84 129 -117v590 q-84 -33 -128 -114t-44 -181z" />
<glyph unicode="&#xa3;" d="M49 195q0 88 57.5 153.5t143.5 65.5q84 0 174 -43q0 119 -27 192h-278v193h162q-125 156 -125 291q0 184 125 282q113 88 307 88q256 0 364 -137q98 -121 99 -381h-273q10 47 10 86q0 203 -186 203q-76 0 -124 -41t-48 -117q0 -55 43 -139q59 -113 68 -135h250v-193h-185 q10 -113 10 -119q0 -84 -28 -157q121 -57 145 -58q94 0 94 213h263v-10q0 -180 -52 -295q-70 -162 -225 -162q-129 0 -317 129q-100 -117 -234 -116q-96 0 -154.5 56t-58.5 151zM193 186q0 -55 63 -55q66 0 106 57q-61 57 -112 58q-51 -1 -57 -60z" />
<glyph unicode="&#xa4;" d="M47 281l117 116q-102 121 -103 299q0 195 103 299l-117 117l107 107l116 -115q117 100 299 100t299 -100l117 115l107 -107l-117 -117q102 -104 102 -299q0 -178 -102 -299l117 -116l-107 -107l-117 119q-111 -104 -299 -105q-188 0 -299 105l-116 -119zM279 696 q0 -129 77 -213q82 -90 213 -90t213 90q78 84 78 213q0 127 -80 215t-211 88t-210.5 -88t-79.5 -215z" />
<glyph unicode="&#xa5;" d="M10 1393h250l309 -590l310 590h249l-323 -602h209v-168h-299l-21 -37v-121h320v-168h-320v-297h-250v297h-319v168h319v121l-20 37h-299v168h209z" />
<glyph unicode="&#xa6;" horiz-adv-x="454" d="M125 -37v600h205v-600h-205zM125 895v600h205v-600h-205z" />
<glyph unicode="&#xa7;" d="M53 625q0 229 232 325q-133 94 -133 236q0 152 124 235q106 74 261 74q205 0 430 -96l-111 -199q-195 90 -307 90q-135 0 -135 -73q0 -37 35 -64q27 -20 139 -80l311 -166q186 -98 186 -286q0 -199 -221 -322q131 -82 131 -231q0 -164 -147 -256q-125 -78 -301 -78 q-209 0 -424 125l123 186q150 -106 284 -106q76 0 129 22q61 29 62 74q0 33 -43 63q-29 18 -131 72l-283 143q-211 106 -211 312zM283 682q0 -84 118 -143l301 -152q154 47 154 172q0 82 -119 141l-301 152q-153 -45 -153 -170z" />
<glyph unicode="&#xa8;" horiz-adv-x="493" d="M-47 1188v229h229v-229h-229zM311 1188v229h230v-229h-230z" />
<glyph unicode="&#xa9;" horiz-adv-x="1638" d="M53 729q0 334 230 555q221 211 536 211t537 -211q229 -221 229 -555t-229 -555q-221 -211 -537 -211q-315 0 -536 211q-230 221 -230 555zM246 729q0 -260 163.5 -435t409.5 -175q244 0 409 175t165 435t-165 435t-409 175q-246 0 -409.5 -175t-163.5 -435zM401 729 q0 203 119 332t322 129q150 0 254 -82q113 -84 137 -236h-180q-31 162 -211 162q-115 0 -181.5 -87t-66.5 -218q0 -121 69.5 -207t178.5 -86q191 0 211 158h180q-25 -150 -134.5 -238t-256.5 -88q-195 0 -318 131t-123 330z" />
<glyph unicode="&#xaa;" horiz-adv-x="714" d="M25 961q0 137 172 186q139 29 276 57v19q0 66 -129 65q-106 0 -106 -80l-181 6q0 102 88 156q78 47 205 47q152 0 221 -35q95 -47 95 -170v-327q0 -57 24 -107h-190q-14 23 -15 60q-96 -72 -233 -72q-98 0 -162.5 53t-64.5 142zM217 969q0 -59 94 -60q63 0 109 27 q53 29 53 80v63q-8 -4 -162 -41q-94 -23 -94 -69z" />
<glyph unicode="&#xab;" horiz-adv-x="872" d="M100 449v299l295 231v-238l-172 -143l172 -143v-238zM477 449v299l295 231v-238l-172 -143l172 -143v-238z" />
<glyph unicode="&#xac;" horiz-adv-x="1228" d="M96 631v205h1037v-623h-205v418h-832z" />
<glyph unicode="&#xad;" horiz-adv-x="681" d="M86 483v230h510v-230h-510z" />
<glyph unicode="&#xae;" horiz-adv-x="1638" d="M53 729q0 334 230 555q221 211 536 211t537 -211q229 -221 229 -555t-229 -555q-221 -211 -537 -211q-315 0 -536 211q-230 221 -230 555zM246 729q0 -260 163.5 -435t409.5 -175q244 0 409 175t165 435t-165 435t-409 175q-246 0 -409.5 -175t-163.5 -435zM518 297v866 h334q319 0 319 -254q0 -223 -219 -245l226 -367h-181l-221 360h-90v-360h-168zM686 801h137q88 0 127 18q53 25 54 92q0 109 -181 109h-137v-219z" />
<glyph unicode="&#xaf;" horiz-adv-x="493" d="M-47 1233v143h588v-143h-588z" />
<glyph unicode="&#xb0;" horiz-adv-x="819" d="M117 1124q0 133 81 213t212 80q133 0 212.5 -80t79.5 -213q0 -131 -79.5 -212t-212.5 -81q-131 0 -212 81t-81 212zM260 1124q0 -57 46 -103t104 -46q59 0 104 46t45 103q0 59 -45 104.5t-104 45.5q-57 0 -103.5 -45.5t-46.5 -104.5z" />
<glyph unicode="&#xb1;" horiz-adv-x="1228" d="M96 0v205h1037v-205h-1037zM96 555v205h416v276h205v-276h416v-205h-416v-276h-205v276h-416z" />
<glyph unicode="&#xb2;" horiz-adv-x="739" d="M47 602v78q0 29 21 41q143 84 245 178q143 131 144 236q0 115 -103 114q-102 0 -102 -166l-205 11q0 324 328 323q137 0 218 -69.5t81 -188.5q0 -143 -125 -262q-43 -41 -221 -160v-4h358v-168h-590q-49 0 -49 37z" />
<glyph unicode="&#xb3;" horiz-adv-x="739" d="M33 840h192q0 -119 135 -119q129 0 129 110q0 96 -127 97h-57v155h62q113 0 112 80q0 86 -110 86q-119 0 -119 -112l-199 34q43 246 334 246q125 0 212 -57t87 -166q0 -137 -162 -176v-4q184 -35 185 -205q0 -123 -101 -193q-92 -63 -241 -63q-332 0 -332 287z" />
<glyph unicode="&#xb4;" horiz-adv-x="493" d="M92 1163l187 295h274l-291 -295h-170z" />
<glyph unicode="&#xb6;" horiz-adv-x="1228" d="M41 1077q0 381 483 381h555v-1687h-180v1532h-235v-1532h-181v940q-203 0 -322.5 101t-119.5 265z" />
<glyph unicode="&#xb7;" horiz-adv-x="569" d="M129 629q0 63 46.5 109t109.5 46t109 -46t46 -109t-46 -109.5t-109 -46.5t-109.5 46t-46.5 110z" />
<glyph unicode="&#xb8;" horiz-adv-x="493" d="M82 -408l37 82q92 -31 133 -30q123 0 123 82q0 72 -101 71q-35 0 -71 -14l-45 39l135 178h98l-90 -117l4 -4q20 10 66 10q63 0 114 -39q57 -45 58 -116q0 -96 -80 -150q-70 -45 -170 -45q-96 0 -211 53z" />
<glyph unicode="&#xb9;" horiz-adv-x="739" d="M113 1135v131h26q111 0 164 41q39 31 59 98h158v-840h-192v496q0 43 -14.5 58.5t-61.5 15.5h-139z" />
<glyph unicode="&#xba;" horiz-adv-x="763" d="M27 1092q0 143 94 234t262 91t264 -94q90 -88 90 -231t-90 -234q-96 -92 -264 -92t-262 90t-94 236zM219 1092q0 -66 43 -115q47 -55 121 -55q72 0 119 55q43 49 43 115q0 63 -45 116.5t-117 53.5q-74 0 -119 -53.5t-45 -116.5z" />
<glyph unicode="&#xbb;" horiz-adv-x="872" d="M100 217v238l172 143l-172 143v238l295 -231v-299zM477 217v238l172 143l-172 143v238l295 -231v-299z" />
<glyph unicode="&#xbc;" horiz-adv-x="1708" d="M82 1135v131h27q111 0 163 41q39 31 60 98h157v-840h-192v496q0 43 -14.5 58.5t-61.5 15.5h-139zM291 -78l852 1548h178l-852 -1548h-178zM934 172v135l395 533h191v-512h106v-156h-106v-172h-193v172h-393zM1114 328h213v288h-4z" />
<glyph unicode="&#xbd;" horiz-adv-x="1708" d="M82 1135v131h27q111 0 163 41q39 31 60 98h157v-840h-192v496q0 43 -14.5 58.5t-61.5 15.5h-139zM270 -78l852 1548h178l-851 -1548h-179zM987 37v78q0 29 21 41q143 84 245 178q143 131 144 235q0 115 -103 115q-102 0 -102 -166l-205 10q0 324 328 324q137 0 218 -69.5 t81 -188.5q0 -143 -125 -262q-43 -41 -221 -160v-4h358v-168h-590q-49 0 -49 37z" />
<glyph unicode="&#xbe;" horiz-adv-x="1708" d="M82 840h192q0 -119 136 -119q129 0 129 110q0 96 -127 97h-58v155h62q113 0 112 80q0 86 -110 86q-119 0 -119 -112l-199 34q43 246 334 246q125 0 212 -57t87 -166q0 -137 -162 -176v-4q184 -35 185 -205q0 -123 -101 -193q-92 -63 -241 -63q-332 0 -332 287zM410 -78 l852 1548h178l-852 -1548h-178zM934 172v135l395 533h191v-512h106v-156h-106v-172h-193v172h-393zM1114 328h213v288h-4z" />
<glyph unicode="&#xbf;" horiz-adv-x="1175" d="M100 90q0 143 74 242q53 68 193 166q106 74 106 202v76h229v-117q0 -123 -20 -182q-27 -84 -117 -142.5t-121 -90.5q-57 -61 -57 -144q0 -88 61.5 -145t157.5 -57q227 0 240 278l250 -35q-8 -225 -145.5 -355t-362.5 -130q-203 0 -342 115q-145 123 -146 319zM451 868 v283h274v-283h-274z" />
<glyph unicode="&#xc0;" horiz-adv-x="1290" d="M-2 0l487 1458h320l487 -1458h-286l-84 283h-553l-84 -283h-287zM340 1843h274l186 -295h-170zM442 524h406l-201 668h-4z" />
<glyph unicode="&#xc1;" horiz-adv-x="1290" d="M-2 0l487 1458h320l487 -1458h-286l-84 283h-553l-84 -283h-287zM442 524h406l-201 668h-4zM491 1548l187 295h274l-291 -295h-170z" />
<glyph unicode="&#xc2;" horiz-adv-x="1290" d="M-2 0l487 1458h320l487 -1458h-286l-84 283h-553l-84 -283h-287zM313 1548l219 295h229l220 -295h-189l-145 178l-146 -178h-188zM442 524h406l-201 668h-4z" />
<glyph unicode="&#xc3;" horiz-adv-x="1290" d="M-2 0l487 1458h320l487 -1458h-286l-84 283h-553l-84 -283h-287zM284 1559q12 94 66 163q61 82 147 82q53 0 162 -43q96 -39 131 -39q76 0 103 90h114q-12 -94 -65 -163q-61 -82 -148 -82q-55 0 -162 43q-98 39 -131 39q-75 0 -102 -90h-115zM442 524h406l-201 668h-4z " />
<glyph unicode="&#xc4;" horiz-adv-x="1290" d="M-2 0l487 1458h320l487 -1458h-286l-84 283h-553l-84 -283h-287zM352 1573v229h229v-229h-229zM442 524h406l-201 668h-4zM710 1573v229h230v-229h-230z" />
<glyph unicode="&#xc5;" horiz-adv-x="1290" d="M-2 0l487 1458h320l487 -1458h-286l-84 283h-553l-84 -283h-287zM436 1720q0 84 63.5 147.5t147.5 63.5q86 0 148.5 -63.5t62.5 -147.5q0 -86 -62.5 -148.5t-148.5 -62.5q-84 0 -147.5 62.5t-63.5 148.5zM442 524h406l-201 668h-4zM528 1720q0 -49 35 -83.5t84 -34.5 q51 0 85 34.5t34 83.5t-34 84t-85 35q-49 0 -84 -35t-35 -84z" />
<glyph unicode="&#xc6;" horiz-adv-x="2048" d="M-23 0l857 1458h1134v-254h-702v-332h606v-241h-606v-377h721v-254h-996v344h-499l-195 -344h-320zM627 586h364v643h-4z" />
<glyph unicode="&#xc7;" horiz-adv-x="1402" d="M80 729q0 322 186 537q195 229 512 229q225 0 377 -115q158 -121 209 -344l-264 -67q-16 121 -106.5 196.5t-215.5 75.5q-203 0 -315 -160q-96 -141 -96 -352t96 -350q113 -162 315 -162q260 0 352 295l250 -115q-174 -434 -602 -434q-334 0 -524 230q-174 209 -174 536z M537 -408l37 82q92 -31 133 -30q123 0 123 82q0 72 -101 71q-35 0 -71 -14l-45 39l135 178h98l-90 -117l4 -4q20 10 66 10q63 0 114 -39q57 -45 58 -116q0 -96 -80 -150q-70 -45 -170 -45q-96 0 -211 53z" />
<glyph unicode="&#xc8;" horiz-adv-x="1251" d="M133 0v1458h1032v-254h-757v-332h696v-241h-696v-377h811v-254h-1086zM320 1843h274l186 -295h-170z" />
<glyph unicode="&#xc9;" horiz-adv-x="1251" d="M133 0v1458h1032v-254h-757v-332h696v-241h-696v-377h811v-254h-1086zM471 1548l187 295h274l-291 -295h-170z" />
<glyph unicode="&#xca;" horiz-adv-x="1251" d="M133 0v1458h1032v-254h-757v-332h696v-241h-696v-377h811v-254h-1086zM293 1548l219 295h229l220 -295h-189l-145 178l-146 -178h-188z" />
<glyph unicode="&#xcb;" horiz-adv-x="1251" d="M133 0v1458h1032v-254h-757v-332h696v-241h-696v-377h811v-254h-1086zM332 1573v229h229v-229h-229zM690 1573v229h230v-229h-230z" />
<glyph unicode="&#xcc;" horiz-adv-x="569" d="M-20 1843h274l186 -295h-170zM147 0v1458h275v-1458h-275z" />
<glyph unicode="&#xcd;" horiz-adv-x="569" d="M131 1548l187 295h274l-291 -295h-170zM147 0v1458h275v-1458h-275z" />
<glyph unicode="&#xce;" horiz-adv-x="569" d="M-47 1548l219 295h229l220 -295h-189l-145 178l-146 -178h-188zM147 0v1458h275v-1458h-275z" />
<glyph unicode="&#xcf;" horiz-adv-x="569" d="M-8 1573v229h229v-229h-229zM147 0v1458h275v-1458h-275zM350 1573v229h230v-229h-230z" />
<glyph unicode="&#xd0;" horiz-adv-x="1441" d="M-6 668v192h139v598h563q313 0 494 -209q172 -199 172 -520q0 -356 -170 -542.5t-496 -186.5h-563v668h-139zM408 254h249q217 0 312 94q106 106 106 381q0 475 -418 475h-249v-344h368v-192h-368v-414z" />
<glyph unicode="&#xd1;" horiz-adv-x="1404" d="M143 0v1458h252l613 -1038h4v1038h250v-1458h-252l-613 1038h-4v-1038h-250zM342 1559q12 94 66 163q61 82 147 82q53 0 162 -43q96 -39 131 -39q76 0 103 90h114q-12 -94 -65 -163q-61 -82 -148 -82q-55 0 -162 43q-98 39 -131 39q-75 0 -102 -90h-115z" />
<glyph unicode="&#xd2;" horiz-adv-x="1556" d="M80 729q0 322 186 537q195 229 512 229t512 -229q186 -215 187 -537q0 -322 -187 -536q-195 -229 -512 -230q-317 0 -512 230q-186 215 -186 536zM367 729q0 -211 96 -350q113 -162 315 -162q203 0 316 162q96 139 96 350t-96 352q-113 160 -316 160t-315 -160 q-96 -141 -96 -352zM473 1843h274l186 -295h-170z" />
<glyph unicode="&#xd3;" horiz-adv-x="1556" d="M80 729q0 322 186 537q195 229 512 229t512 -229q186 -215 187 -537q0 -322 -187 -536q-195 -229 -512 -230q-317 0 -512 230q-186 215 -186 536zM367 729q0 -211 96 -350q113 -162 315 -162q203 0 316 162q96 139 96 350t-96 352q-113 160 -316 160t-315 -160 q-96 -141 -96 -352zM624 1548l187 295h274l-291 -295h-170z" />
<glyph unicode="&#xd4;" horiz-adv-x="1556" d="M80 729q0 322 186 537q195 229 512 229t512 -229q186 -215 187 -537q0 -322 -187 -536q-195 -229 -512 -230q-317 0 -512 230q-186 215 -186 536zM367 729q0 -211 96 -350q113 -162 315 -162q203 0 316 162q96 139 96 350t-96 352q-113 160 -316 160t-315 -160 q-96 -141 -96 -352zM446 1548l219 295h229l220 -295h-189l-145 178l-146 -178h-188z" />
<glyph unicode="&#xd5;" horiz-adv-x="1556" d="M80 729q0 322 186 537q195 229 512 229t512 -229q186 -215 187 -537q0 -322 -187 -536q-195 -229 -512 -230q-317 0 -512 230q-186 215 -186 536zM367 729q0 -211 96 -350q113 -162 315 -162q203 0 316 162q96 139 96 350t-96 352q-113 160 -316 160t-315 -160 q-96 -141 -96 -352zM417 1559q12 94 66 163q61 82 147 82q53 0 162 -43q96 -39 131 -39q76 0 103 90h114q-12 -94 -65 -163q-61 -82 -148 -82q-55 0 -162 43q-98 39 -131 39q-75 0 -102 -90h-115z" />
<glyph unicode="&#xd6;" horiz-adv-x="1556" d="M80 729q0 322 186 537q195 229 512 229t512 -229q186 -215 187 -537q0 -322 -187 -536q-195 -229 -512 -230q-317 0 -512 230q-186 215 -186 536zM367 729q0 -211 96 -350q113 -162 315 -162q203 0 316 162q96 139 96 350t-96 352q-113 160 -316 160t-315 -160 q-96 -141 -96 -352zM485 1573v229h229v-229h-229zM843 1573v229h230v-229h-230z" />
<glyph unicode="&#xd7;" horiz-adv-x="1228" d="M131 180l338 338l-338 340l143 143l340 -337l338 337l146 -143l-338 -340l338 -338l-146 -145l-338 340l-340 -340z" />
<glyph unicode="&#xd8;" horiz-adv-x="1554" d="M35 195l145 129q-100 182 -100 405q0 322 186 537q195 229 512 229q295 0 488 -205l123 111l131 -137l-144 -127q100 -182 101 -408q0 -322 -187 -536q-195 -229 -512 -230q-297 0 -487 205l-125 -111zM367 729q-1 -109 30 -211l672 598q-109 125 -291 125 q-203 0 -315 -160q-96 -141 -96 -352zM487 344q106 -127 291 -127q203 0 316 162q96 139 96 350q0 109 -31 213z" />
<glyph unicode="&#xd9;" horiz-adv-x="1441" d="M133 449v1009h275v-938q0 -291 313 -291t313 291v938h275v-1009q0 -221 -161 -353.5t-427 -132.5t-427 132t-161 354zM416 1843h274l186 -295h-170z" />
<glyph unicode="&#xda;" horiz-adv-x="1441" d="M133 449v1009h275v-938q0 -291 313 -291t313 291v938h275v-1009q0 -221 -161 -353.5t-427 -132.5t-427 132t-161 354zM567 1548l187 295h274l-291 -295h-170z" />
<glyph unicode="&#xdb;" horiz-adv-x="1441" d="M133 449v1009h275v-938q0 -291 313 -291t313 291v938h275v-1009q0 -221 -161 -353.5t-427 -132.5t-427 132t-161 354zM389 1548l219 295h229l220 -295h-189l-145 178l-146 -178h-188z" />
<glyph unicode="&#xdc;" horiz-adv-x="1441" d="M133 449v1009h275v-938q0 -291 313 -291t313 291v938h275v-1009q0 -221 -161 -353.5t-427 -132.5t-427 132t-161 354zM428 1573v229h229v-229h-229zM786 1573v229h230v-229h-230z" />
<glyph unicode="&#xdd;" horiz-adv-x="1290" d="M23 1458h305l317 -602l318 602h305l-486 -889v-569h-274v569zM491 1548l187 295h274l-291 -295h-170z" />
<glyph unicode="&#xde;" horiz-adv-x="1251" d="M133 0v1458h275v-217h323q219 0 355.5 -131t136.5 -352t-136.5 -352.5t-355.5 -131.5h-323v-274h-275zM408 504h272q125 0 190.5 68.5t65.5 185.5q0 254 -256 254h-272v-508z" />
<glyph unicode="&#xdf;" d="M123 0v1051q0 432 438 432q188 0 320 -90q147 -104 147 -281q0 -201 -186 -256v-4q240 -82 239 -403q0 -215 -112.5 -338t-323.5 -123q-96 0 -182 24v244q49 -39 133 -39q106 0 164.5 67.5t58.5 172.5q0 285 -291 284h-57v199q35 -6 74 -6q82 0 135 41q61 45 61 129 q0 78 -49 120t-127 42q-82 0 -133 -49q-59 -55 -59 -164v-1053h-250z" />
<glyph unicode="&#xe0;" horiz-adv-x="1099" d="M49 301q0 262 316 324l104 20q104 20 270 62v30q0 131 -196 131q-109 0 -151 -34.5t-42 -120.5l-250 10q0 170 136 260q119 78 307 78q203 0 307 -60q139 -79 139 -280v-547q0 -113 39 -174h-264q-25 37 -25 94q-147 -119 -338 -119q-152 0 -252 89.5t-100 236.5z M244 1458h274l186 -295h-170zM311 309q0 -57 46 -93t116 -36q100 0 176 45q90 54 90 146v147q-41 -20 -118 -37l-138 -28q-86 -18 -121 -43q-51 -33 -51 -101z" />
<glyph unicode="&#xe1;" horiz-adv-x="1099" d="M49 301q0 262 316 324l104 20q104 20 270 62v30q0 131 -196 131q-109 0 -151 -34.5t-42 -120.5l-250 10q0 170 136 260q119 78 307 78q203 0 307 -60q139 -79 139 -280v-547q0 -113 39 -174h-264q-25 37 -25 94q-147 -119 -338 -119q-152 0 -252 89.5t-100 236.5z M311 309q0 -57 46 -93t116 -36q100 0 176 45q90 54 90 146v147q-41 -20 -118 -37l-138 -28q-86 -18 -121 -43q-51 -33 -51 -101zM395 1163l187 295h274l-291 -295h-170z" />
<glyph unicode="&#xe2;" horiz-adv-x="1099" d="M49 301q0 262 316 324l104 20q104 20 270 62v30q0 131 -196 131q-109 0 -151 -34.5t-42 -120.5l-250 10q0 170 136 260q119 78 307 78q203 0 307 -60q139 -79 139 -280v-547q0 -113 39 -174h-264q-25 37 -25 94q-147 -119 -338 -119q-152 0 -252 89.5t-100 236.5z M217 1163l219 295h229l220 -295h-189l-145 178l-146 -178h-188zM311 309q0 -57 46 -93t116 -36q100 0 176 45q90 54 90 146v147q-41 -20 -118 -37l-138 -28q-86 -18 -121 -43q-51 -33 -51 -101z" />
<glyph unicode="&#xe3;" horiz-adv-x="1099" d="M49 301q0 262 316 324l104 20q104 20 270 62v30q0 131 -196 131q-109 0 -151 -34.5t-42 -120.5l-250 10q0 170 136 260q119 78 307 78q203 0 307 -60q139 -79 139 -280v-547q0 -113 39 -174h-264q-25 37 -25 94q-147 -119 -338 -119q-152 0 -252 89.5t-100 236.5z M188 1174q12 94 66 163q61 82 147 82q53 0 162 -43q96 -39 131 -39q76 0 103 90h114q-12 -94 -65 -163q-61 -82 -148 -82q-55 0 -162 43q-98 39 -131 39q-75 0 -102 -90h-115zM311 309q0 -57 46 -93t116 -36q100 0 176 45q90 54 90 146v147q-41 -20 -118 -37l-138 -28 q-86 -18 -121 -43q-51 -33 -51 -101z" />
<glyph unicode="&#xe4;" horiz-adv-x="1099" d="M49 301q0 262 316 324l104 20q104 20 270 62v30q0 131 -196 131q-109 0 -151 -34.5t-42 -120.5l-250 10q0 170 136 260q119 78 307 78q203 0 307 -60q139 -79 139 -280v-547q0 -113 39 -174h-264q-25 37 -25 94q-147 -119 -338 -119q-152 0 -252 89.5t-100 236.5z M256 1188v229h229v-229h-229zM311 309q0 -57 46 -93t116 -36q100 0 176 45q90 54 90 146v147q-41 -20 -118 -37l-138 -28q-86 -18 -121 -43q-51 -33 -51 -101zM614 1188v229h230v-229h-230z" />
<glyph unicode="&#xe5;" horiz-adv-x="1099" d="M49 301q0 262 316 324l104 20q104 20 270 62v30q0 131 -196 131q-109 0 -151 -34.5t-42 -120.5l-250 10q0 170 136 260q119 78 307 78q203 0 307 -60q139 -79 139 -280v-547q0 -113 39 -174h-264q-25 37 -25 94q-147 -119 -338 -119q-152 0 -252 89.5t-100 236.5z M311 309q0 -57 46 -93t116 -36q100 0 176 45q90 54 90 146v147q-41 -20 -118 -37l-138 -28q-86 -18 -121 -43q-51 -33 -51 -101zM340 1298q0 84 63.5 147.5t147.5 63.5q86 0 148.5 -63.5t62.5 -147.5q0 -86 -62.5 -148.5t-148.5 -62.5q-84 0 -147.5 62.5t-63.5 148.5z M432 1298q0 -49 35 -83.5t84 -34.5q51 0 85 34.5t34 83.5t-34 84t-85 35q-49 0 -84 -35t-35 -84z" />
<glyph unicode="&#xe6;" horiz-adv-x="1781" d="M41 301q0 258 350 330l70 14q104 20 272 62v30q0 49 -54 90t-138 41q-176 0 -199 -155h-238q8 180 136 270q111 78 295 78q231 0 348 -135q121 135 348 135q498 0 498 -602h-746q2 -111 78 -182.5t170 -71.5q150 0 272 139l189 -123q-80 -109 -215.5 -177.5t-268.5 -68.5 q-199 0 -374 160q-178 -160 -439 -160q-152 0 -250 88q-104 90 -104 238zM303 297q0 -57 46 -93t116 -36q109 0 178 57q90 72 90 226v55q-45 -20 -121 -37l-137 -29q-86 -18 -121 -43q-51 -33 -51 -100zM983 651h483q0 59 -55 123q-70 82 -180 82q-213 0 -248 -205z" />
<glyph unicode="&#xe7;" horiz-adv-x="1062" d="M57 518q0 238 142.5 390.5t388.5 152.5q317 0 438 -295l-219 -100q-25 76 -85 120.5t-134 44.5q-127 0 -201 -96q-68 -88 -68 -217q0 -131 62 -217q70 -96 192 -96q170 0 252 201l213 -113q-145 -317 -469 -318q-233 0 -374 156q-137 150 -138 387zM367 -408l37 82 q92 -31 133 -30q123 0 123 82q0 72 -101 71q-35 0 -71 -14l-45 39l135 178h98l-90 -117l4 -4q20 10 66 10q63 0 114 -39q57 -45 58 -116q0 -96 -80 -150q-70 -45 -170 -45q-96 0 -211 53z" />
<glyph unicode="&#xe8;" d="M57 518q0 238 142.5 390.5t388.5 152.5q497 0 497 -602h-766q2 -111 87 -185q76 -70 182 -69q195 0 299 147l211 -123q-166 -254 -510 -254q-246 0 -391 156q-139 150 -140 387zM265 1458h274l186 -295h-170zM319 651h504q0 59 -55 123q-70 82 -180 82 q-104 0 -176.5 -58.5t-92.5 -146.5z" />
<glyph unicode="&#xe9;" d="M57 518q0 238 142.5 390.5t388.5 152.5q497 0 497 -602h-766q2 -111 87 -185q76 -70 182 -69q195 0 299 147l211 -123q-166 -254 -510 -254q-246 0 -391 156q-139 150 -140 387zM319 651h504q0 59 -55 123q-70 82 -180 82q-104 0 -176.5 -58.5t-92.5 -146.5zM416 1163 l187 295h274l-291 -295h-170z" />
<glyph unicode="&#xea;" d="M57 518q0 238 142.5 390.5t388.5 152.5q497 0 497 -602h-766q2 -111 87 -185q76 -70 182 -69q195 0 299 147l211 -123q-166 -254 -510 -254q-246 0 -391 156q-139 150 -140 387zM238 1163l219 295h229l220 -295h-189l-145 178l-146 -178h-188zM319 651h504q0 59 -55 123 q-70 82 -180 82q-104 0 -176.5 -58.5t-92.5 -146.5z" />
<glyph unicode="&#xeb;" d="M57 518q0 238 142.5 390.5t388.5 152.5q497 0 497 -602h-766q2 -111 87 -185q76 -70 182 -69q195 0 299 147l211 -123q-166 -254 -510 -254q-246 0 -391 156q-139 150 -140 387zM277 1188v229h229v-229h-229zM319 651h504q0 59 -55 123q-70 82 -180 82 q-104 0 -176.5 -58.5t-92.5 -146.5zM635 1188v229h230v-229h-230z" />
<glyph unicode="&#xec;" horiz-adv-x="495" d="M-57 1458h274l186 -295h-170zM123 0v1036h250v-1036h-250z" />
<glyph unicode="&#xed;" horiz-adv-x="495" d="M94 1163l187 295h274l-291 -295h-170zM123 0v1036h250v-1036h-250z" />
<glyph unicode="&#xee;" horiz-adv-x="495" d="M-84 1163l219 295h229l220 -295h-189l-145 178l-146 -178h-188zM123 0v1036h250v-1036h-250z" />
<glyph unicode="&#xef;" horiz-adv-x="495" d="M-45 1188v229h229v-229h-229zM123 0v1036h250v-1036h-250zM313 1188v229h230v-229h-230z" />
<glyph unicode="&#xf0;" horiz-adv-x="1175" d="M57 518q0 238 142.5 390.5t388.5 152.5q61 0 110 -27h4q-16 23 -86 86q-78 68 -133 105l-186 -99l-100 80l180 97q-68 57 -148 92l201 133q100 -53 168 -109l195 103l100 -80l-193 -103q209 -164 306 -333q113 -195 112 -449q0 -264 -141 -423t-389 -159q-246 0 -391 156 q-139 150 -140 387zM319 518q0 -129 68 -217q74 -96 201 -96t200 96q68 88 68 217t-68 217q-73 96 -200 96t-201 -96q-68 -88 -68 -217z" />
<glyph unicode="&#xf1;" d="M123 0v1036h250v-102h4q104 127 282 127q356 0 357 -352v-709h-250v633q0 186 -172 186q-96 0 -156 -65q-66 -72 -65 -207v-547h-250zM209 1174q12 94 66 163q61 82 147 82q53 0 162 -43q96 -39 131 -39q76 0 103 90h114q-12 -94 -65 -163q-61 -82 -148 -82 q-55 0 -162 43q-98 39 -131 39q-75 0 -102 -90h-115z" />
<glyph unicode="&#xf2;" horiz-adv-x="1175" d="M57 518q0 238 142.5 390.5t388.5 152.5t391 -156q139 -150 139 -387q0 -238 -139 -387q-145 -156 -391 -156t-391 156q-139 150 -140 387zM283 1458h274l186 -295h-170zM319 518q0 -129 68 -217q74 -96 201 -96t200 96q68 88 68 217t-68 217q-73 96 -200 96t-201 -96 q-68 -88 -68 -217z" />
<glyph unicode="&#xf3;" horiz-adv-x="1175" d="M57 518q0 238 142.5 390.5t388.5 152.5t391 -156q139 -150 139 -387q0 -238 -139 -387q-145 -156 -391 -156t-391 156q-139 150 -140 387zM319 518q0 -129 68 -217q74 -96 201 -96t200 96q68 88 68 217t-68 217q-73 96 -200 96t-201 -96q-68 -88 -68 -217zM434 1163 l187 295h274l-291 -295h-170z" />
<glyph unicode="&#xf4;" horiz-adv-x="1175" d="M57 518q0 238 142.5 390.5t388.5 152.5t391 -156q139 -150 139 -387q0 -238 -139 -387q-145 -156 -391 -156t-391 156q-139 150 -140 387zM256 1163l219 295h229l220 -295h-189l-145 178l-146 -178h-188zM319 518q0 -129 68 -217q74 -96 201 -96t200 96q68 88 68 217 t-68 217q-73 96 -200 96t-201 -96q-68 -88 -68 -217z" />
<glyph unicode="&#xf5;" horiz-adv-x="1175" d="M57 518q0 238 142.5 390.5t388.5 152.5t391 -156q139 -150 139 -387q0 -238 -139 -387q-145 -156 -391 -156t-391 156q-139 150 -140 387zM227 1174q12 94 66 163q61 82 147 82q53 0 162 -43q96 -39 131 -39q76 0 103 90h114q-12 -94 -65 -163q-61 -82 -148 -82 q-55 0 -162 43q-98 39 -131 39q-75 0 -102 -90h-115zM319 518q0 -129 68 -217q74 -96 201 -96t200 96q68 88 68 217t-68 217q-73 96 -200 96t-201 -96q-68 -88 -68 -217z" />
<glyph unicode="&#xf6;" horiz-adv-x="1175" d="M57 518q0 238 142.5 390.5t388.5 152.5t391 -156q139 -150 139 -387q0 -238 -139 -387q-145 -156 -391 -156t-391 156q-139 150 -140 387zM295 1188v229h229v-229h-229zM319 518q0 -129 68 -217q74 -96 201 -96t200 96q68 88 68 217t-68 217q-73 96 -200 96t-201 -96 q-68 -88 -68 -217zM653 1188v229h230v-229h-230z" />
<glyph unicode="&#xf7;" horiz-adv-x="1228" d="M96 416v205h1037v-205h-1037zM459 102q0 63 46 109.5t109 46.5t109.5 -46t46.5 -110q0 -63 -46 -109t-110 -46q-63 0 -109 46t-46 109zM459 934q0 63 46 109.5t109 46.5t109.5 -46.5t46.5 -109.5t-46 -109.5t-110 -46.5q-63 0 -109 46t-46 110z" />
<glyph unicode="&#xf8;" horiz-adv-x="1175" d="M12 158l109 88q-63 113 -64 272q0 238 142.5 390.5t388.5 152.5q240 0 379 -146l104 84l92 -118l-108 -86q63 -119 63 -277q0 -238 -139 -387q-145 -156 -391 -156q-240 0 -381 148l-103 -84zM319 518q1 -59 15 -104l434 344q-70 74 -180 73q-127 0 -201 -96 q-68 -88 -68 -217zM406 281q70 -76 182 -76q127 0 200 96q68 88 68 217q0 60 -14 109z" />
<glyph unicode="&#xf9;" horiz-adv-x="1175" d="M123 350v686h250v-614q0 -205 184 -205q129 0 195 84q51 70 51 178v557h250v-1036h-250v102h-4q-98 -127 -297 -127q-160 0 -256 74q-123 96 -123 301zM283 1458h274l186 -295h-170z" />
<glyph unicode="&#xfa;" horiz-adv-x="1175" d="M123 350v686h250v-614q0 -205 184 -205q129 0 195 84q51 70 51 178v557h250v-1036h-250v102h-4q-98 -127 -297 -127q-160 0 -256 74q-123 96 -123 301zM434 1163l187 295h274l-291 -295h-170z" />
<glyph unicode="&#xfb;" horiz-adv-x="1175" d="M123 350v686h250v-614q0 -205 184 -205q129 0 195 84q51 70 51 178v557h250v-1036h-250v102h-4q-98 -127 -297 -127q-160 0 -256 74q-123 96 -123 301zM256 1163l219 295h229l220 -295h-189l-145 178l-146 -178h-188z" />
<glyph unicode="&#xfc;" horiz-adv-x="1175" d="M123 350v686h250v-614q0 -205 184 -205q129 0 195 84q51 70 51 178v557h250v-1036h-250v102h-4q-98 -127 -297 -127q-160 0 -256 74q-123 96 -123 301zM295 1188v229h229v-229h-229zM653 1188v229h230v-229h-230z" />
<glyph unicode="&#xfd;" horiz-adv-x="948" d="M0 1036h268l224 -753h4l194 753h258l-340 -1128q-43 -141 -114.5 -196.5t-208.5 -55.5q-70 0 -150 14v224q49 -8 98 -9q59 0 87 18.5t53 69.5zM319 1163l187 295h274l-291 -295h-170z" />
<glyph unicode="&#xfe;" horiz-adv-x="1175" d="M123 -332v1790h250v-510h4q123 113 295 113q195 0 320.5 -158t125.5 -385q0 -229 -125 -383q-131 -160 -329 -160q-190 0 -287 125h-4v-432h-250zM365 518q0 -131 53 -213q63 -100 192 -100t195 100q51 82 51 213t-51 213q-66 100 -195 100t-192 -100q-53 -82 -53 -213z " />
<glyph unicode="&#xff;" horiz-adv-x="948" d="M0 1036h268l224 -753h4l194 753h258l-340 -1128q-43 -141 -114.5 -196.5t-208.5 -55.5q-70 0 -150 14v224q49 -8 98 -9q59 0 87 18.5t53 69.5zM180 1188v229h229v-229h-229zM538 1188v229h230v-229h-230z" />
<glyph unicode="&#x152;" horiz-adv-x="2048" d="M63 729q0 303 179 526q190 240 481 240q168 0 293 -84v47h958v-254h-684v-332h608v-241h-608v-377h725v-254h-999v57q-119 -94 -293 -94q-309 0 -494 240q-166 215 -166 526zM350 729q0 -211 96 -350q113 -162 316 -162q254 0 254 156v678q0 72 -76 131t-178 59 q-203 0 -316 -160q-96 -141 -96 -352z" />
<glyph unicode="&#x153;" horiz-adv-x="1857" d="M57 518q0 238 140.5 390.5t377.5 152.5q225 0 361 -148q147 147 375 148q238 0 360 -162q117 -156 117 -440h-707q2 -113 67.5 -183.5t162.5 -70.5q166 0 252 141l211 -123q-82 -106 -197 -172q-129 -74 -266 -76q-242 -2 -365 185q-111 -184 -371 -185q-238 0 -380 156 q-138 149 -138 387zM319 518q0 -129 66 -217q72 -96 190 -96q119 0 191 96q66 88 65 217q0 129 -65 217q-72 96 -191 96t-190 -96q-66 -88 -66 -217zM1081 651h445q-6 84 -64.5 144.5t-150.5 60.5q-96 0 -161 -60.5t-69 -144.5z" />
<glyph unicode="&#x178;" horiz-adv-x="1290" d="M23 1458h305l317 -602l318 602h305l-486 -889v-569h-274v569zM352 1573v229h229v-229h-229zM710 1573v229h230v-229h-230z" />
<glyph unicode="&#x2c6;" horiz-adv-x="493" d="M-86 1163l219 295h229l220 -295h-189l-145 178l-146 -178h-188z" />
<glyph unicode="&#x2dc;" horiz-adv-x="493" d="M-115 1174q12 94 66 163q61 82 147 82q53 0 162 -43q96 -39 131 -39q76 0 103 90h114q-12 -94 -65 -163q-61 -82 -148 -82q-55 0 -162 43q-98 39 -131 39q-75 0 -102 -90h-115z" />
<glyph unicode="&#x2000;" horiz-adv-x="965" />
<glyph unicode="&#x2001;" horiz-adv-x="1931" />
<glyph unicode="&#x2002;" horiz-adv-x="965" />
<glyph unicode="&#x2003;" horiz-adv-x="1931" />
<glyph unicode="&#x2004;" horiz-adv-x="643" />
<glyph unicode="&#x2005;" horiz-adv-x="482" />
<glyph unicode="&#x2006;" horiz-adv-x="321" />
<glyph unicode="&#x2007;" horiz-adv-x="321" />
<glyph unicode="&#x2008;" horiz-adv-x="241" />
<glyph unicode="&#x2009;" horiz-adv-x="386" />
<glyph unicode="&#x200a;" horiz-adv-x="107" />
<glyph unicode="&#x2010;" horiz-adv-x="681" d="M86 483v230h510v-230h-510z" />
<glyph unicode="&#x2011;" horiz-adv-x="681" d="M86 483v230h510v-230h-510z" />
<glyph unicode="&#x2012;" horiz-adv-x="681" d="M86 483v230h510v-230h-510z" />
<glyph unicode="&#x2013;" horiz-adv-x="1024" d="M0 483v230h1024v-230h-1024z" />
<glyph unicode="&#x2014;" horiz-adv-x="2048" d="M0 483v230h2048v-230h-2048z" />
<glyph unicode="&#x2018;" horiz-adv-x="569" d="M147 889v338q0 197 261 231v-125q-104 -10 -105 -98v-64h119v-282h-275z" />
<glyph unicode="&#x2019;" horiz-adv-x="569" d="M147 1176v282h275v-338q0 -197 -260 -231v125q104 10 104 98v64h-119z" />
<glyph unicode="&#x201a;" horiz-adv-x="569" d="M147 0v283h275v-338q0 -197 -260 -232v125q104 10 104 99v63h-119z" />
<glyph unicode="&#x201c;" horiz-adv-x="796" d="M84 889v338q0 197 260 231v-125q-104 -10 -104 -98v-64h118v-282h-274zM438 889v338q0 197 260 231v-125q-104 -10 -104 -98v-64h119v-282h-275z" />
<glyph unicode="&#x201d;" horiz-adv-x="796" d="M84 1176v282h274v-338q0 -197 -260 -231v125q104 10 105 98v64h-119zM438 1176v282h275v-338q0 -197 -260 -231v125q104 10 104 98v64h-119z" />
<glyph unicode="&#x201e;" horiz-adv-x="796" d="M84 0v283h274v-338q0 -197 -260 -232v125q104 10 105 99v63h-119zM438 0v283h275v-338q0 -197 -260 -232v125q104 10 104 99v63h-119z" />
<glyph unicode="&#x2022;" horiz-adv-x="1024" d="M147 729q0 150 107.5 257.5t257.5 107.5t257.5 -107.5t107.5 -257.5t-107.5 -257t-257.5 -107t-257.5 107.5t-107.5 256.5z" />
<glyph unicode="&#x2026;" horiz-adv-x="2048" d="M205 0v283h274v-283h-274zM887 0v283h274v-283h-274zM1569 0v283h274v-283h-274z" />
<glyph unicode="&#x202f;" horiz-adv-x="386" />
<glyph unicode="&#x2039;" horiz-adv-x="569" d="M137 449v299l295 231v-238l-172 -143l172 -143v-238z" />
<glyph unicode="&#x203a;" horiz-adv-x="569" d="M137 217v238l172 143l-172 143v238l295 -231v-299z" />
<glyph unicode="&#x205f;" horiz-adv-x="482" />
<glyph unicode="&#x2122;" horiz-adv-x="2027" d="M63 1303v155h680v-155h-243v-689h-193v689h-244zM866 614v844h273l217 -577l213 577h272v-844h-180v639h-4l-234 -639h-139l-233 639h-4v-639h-181z" />
<glyph unicode="&#x25fc;" horiz-adv-x="1034" d="M0 0v1034h1034v-1034h-1034z" />
</font>
</defs>
</svg>
