<?xml version="1.0" standalone="no"?>
<!DOCTYPE svg PUBLIC "-//W3C//DTD SVG 1.1//EN" "http://www.w3.org/Graphics/SVG/1.1/DTD/svg11.dtd" >
<svg xmlns="http://www.w3.org/2000/svg">
<metadata></metadata>
<defs>
<font id="monostenabook" horiz-adv-x="1269" >
<font-face units-per-em="2048" ascent="1536" descent="-512" />
<missing-glyph horiz-adv-x="500" />
<glyph />
<glyph />
<glyph unicode="&#xd;" />
<glyph unicode=" " />
<glyph unicode="!" d="M469 166q0 70 47.5 118t118.5 48t118.5 -48t47.5 -118t-47.5 -118t-118.5 -48t-118.5 48t-47.5 118zM508 1317q3 137 127 137t127 -137l-37 -739q-4 -109 -90 -109t-90 109z" />
<glyph unicode="&#x22;" d="M326 1276q0 178 123 178q122 0 122 -178q0 -111 -39.5 -273.5t-82.5 -162.5t-83 163t-40 273zM715 1276q0 178 123 178t123 -178q0 -110 -40 -273t-83 -163t-83 163t-40 273z" />
<glyph unicode="#" d="M23 492q0 40 29 66t71 26h137l43 266h-180q-42 0 -71 26t-29 66t29 66t71 26h211l49 299q6 42 37 71.5t72 29.5q77 0 77 -82q0 -9 -2 -19l-49 -299h266l50 299q6 42 36.5 71.5t71.5 29.5q39 0 58.5 -22.5t19.5 -59.5q0 -9 -2 -19l-49 -299h121q42 0 71 -26t29 -66 t-29 -66t-71 -26h-152l-43 -266h195q42 0 71 -26t29 -66q0 -41 -29 -67t-71 -26h-224l-49 -299q-6 -44 -34.5 -72t-73.5 -28q-78 0 -78 82q0 8 2 18l49 299h-266l-49 -299q-6 -43 -35 -71.5t-74 -28.5q-78 0 -78 82q0 8 2 18l49 299h-108q-42 0 -71 26t-29 67zM444 584h267 l43 266h-267z" />
<glyph unicode="$" d="M74 317q0 43 27 72t71 29q54 0 90 -56q56 -93 123 -139.5t174 -58.5v504q-56 14 -91 24t-86 28t-82.5 36t-68 47t-57 61.5t-34 78t-13.5 99.5q0 94 34.5 169.5t95 124.5t137 77.5t165.5 36.5v55q0 92 76 92t76 -92v-57q233 -26 348 -215q26 -45 26 -84q0 -47 -29 -74.5 t-71 -27.5q-59 0 -88 59q-65 136 -186 162v-453q73 -21 125.5 -40t113.5 -53.5t98.5 -75.5t63 -104t25.5 -141q0 -92 -34.5 -168t-94.5 -127t-135.5 -81.5t-161.5 -40.5v-56q0 -92 -76 -92t-76 92v56q-311 26 -461 260q-24 40 -24 73zM324 1042q0 -70 60 -111t175 -73v412 q-110 -11 -172.5 -67.5t-62.5 -160.5zM711 164q111 14 170 72.5t59 160.5q0 91 -59.5 143t-169.5 87v-463z" />
<glyph unicode="%" d="M41 1135q0 138 89 228.5t230 90.5q143 0 233.5 -90.5t90.5 -228.5q0 -136 -90.5 -226t-233.5 -90q-141 0 -230 90t-89 226zM123 401q0 37 37 62l860 600q24 18 47 18q26 0 44.5 -21t18.5 -46q0 -40 -36 -64l-861 -600q-24 -18 -47 -18q-28 0 -45.5 21t-17.5 48zM190 1135 q0 -81 46 -133t124 -52q80 0 127.5 52t47.5 133q0 83 -47.5 135.5t-127.5 52.5q-78 0 -124 -52.5t-46 -135.5zM594 295q0 138 89 228.5t230 90.5q143 0 233.5 -90.5t90.5 -228.5q0 -136 -90.5 -225.5t-233.5 -89.5q-141 0 -230 89.5t-89 225.5zM743 295q0 -81 46 -132.5 t124 -51.5q80 0 127 51.5t47 132.5q0 83 -47 135.5t-127 52.5q-78 0 -124 -52.5t-46 -135.5z" />
<glyph unicode="&#x26;" d="M53 387q0 261 242 401q-68 87 -104.5 159.5t-36.5 160.5q0 158 99 252t255 94q166 0 261 -94.5t95 -239.5q0 -118 -70.5 -205.5t-211.5 -158.5l301 -336q50 117 67 289q8 92 88 92q36 0 58 -22.5t22 -69.5q0 -101 -31 -216.5t-79 -203.5l116 -127q29 -29 29 -66 q0 -44 -28 -70t-68 -26q-41 0 -78 37l-88 96q-87 -84 -186 -118.5t-228 -34.5q-188 0 -306 112.5t-118 294.5zM250 393q0 -98 72 -169.5t176 -71.5q89 0 152.5 25.5t123.5 82.5l-362 402q-50 -28 -83.5 -61.5t-50 -69.5t-22.5 -68t-6 -70zM342 1118q0 -60 28 -111t93 -124 q107 49 162 105t55 130q0 78 -47.5 121t-124.5 43q-71 0 -118.5 -43t-47.5 -121z" />
<glyph unicode="'" d="M510 1276q0 178 123 178t123 -178q0 -110 -40 -273t-83 -163t-83 163t-40 273z" />
<glyph unicode="(" d="M389 614q0 260 71.5 496.5t223.5 413.5q34 37 72 37q36 0 64 -27t28 -64q0 -32 -23 -65q-252 -296 -252 -791q0 -494 252 -790q23 -33 23 -66q0 -37 -28 -63.5t-64 -26.5q-45 0 -72 37q-152 177 -223.5 413.5t-71.5 495.5z" />
<glyph unicode=")" d="M389 -242q0 33 23 66q252 296 252 790q0 495 -252 791q-23 33 -23 65q0 37 28 64t64 27q38 0 72 -37q152 -177 223.5 -413.5t71.5 -496.5q0 -259 -71.5 -495.5t-223.5 -413.5q-27 -37 -72 -37q-36 0 -64 26.5t-28 63.5z" />
<glyph unicode="*" d="M201 711q0 51 57 82l223 129l-223 129q-57 31 -57 82q0 33 21.5 55t56.5 22q31 0 61 -18l223 -129v258q0 44 21 72t61 28t61 -28t21 -72v-258l223 129q30 18 62 18q35 0 56.5 -22t21.5 -55q0 -50 -58 -82l-223 -129l223 -129q58 -32 58 -82q0 -33 -21.5 -55.5 t-56.5 -22.5q-32 0 -62 18l-223 129v-258q0 -44 -21 -72t-61 -28t-61 28t-21 72v258l-223 -129q-30 -18 -61 -18q-35 0 -56.5 22.5t-21.5 55.5z" />
<glyph unicode="+" d="M119 616q0 47 26.5 66.5t77.5 19.5h328v326q0 105 86 105t86 -105v-326h328q51 0 77.5 -19.5t26.5 -66.5t-26.5 -66.5t-77.5 -19.5h-328v-327q0 -105 -86 -105t-86 105v327h-328q-51 0 -77.5 19.5t-26.5 66.5z" />
<glyph unicode="," d="M459 -195q0 35 26 54q48 30 59 60.5t11 98.5q-39 21 -62.5 59.5t-23.5 86.5q0 71 48 119.5t118 48.5q71 0 119.5 -49t48.5 -119v-14q-4 -94 -57 -178t-150 -183q-41 -41 -80 -41q-18 0 -35 14q-22 16 -22 43z" />
<glyph unicode="-" d="M213 616q0 47 26.5 66.5t77.5 19.5h639q105 0 105 -86t-105 -86h-639q-51 0 -77.5 19.5t-26.5 66.5z" />
<glyph unicode="." d="M469 166q0 70 47.5 118t118.5 48t118.5 -48t47.5 -118t-47.5 -118t-118.5 -48t-118.5 48t-47.5 118z" />
<glyph unicode="/" d="M37 90q0 25 20 51l969 1258q25 35 61 35q33 0 66 -29.5t33 -63.5q0 -24 -21 -51l-968 -1255q-25 -35 -62 -35q-34 0 -66 28t-32 62z" />
<glyph unicode="0" d="M180 459v516q0 213 119 346t338 133t338 -133t119 -346v-516q0 -213 -119 -346t-338 -133t-338 133t-119 346zM369 524l508 625q-58 137 -240 137q-142 0 -205 -79.5t-63 -215.5v-467zM395 289q58 -142 242 -142q142 0 205 79.5t63 215.5v476z" />
<glyph unicode="1" d="M209 1077q0 58 51 92l358 234q43 31 74 31q22 0 43 -9q47 -19 47 -100v-1157h265q110 0 110 -84t-110 -84h-713q-111 0 -111 84t111 84h260v987l-217 -137q-48 -31 -80 -31q-38 0 -63 26t-25 64z" />
<glyph unicode="2" d="M182 115v53q0 76 25 147t62 124t96 107.5t109.5 90.5t119.5 80q135 85 205.5 164.5t70.5 175.5q0 105 -55 167t-168 62q-109 0 -170 -65t-69 -164q-3 -50 -27 -80.5t-68 -30.5t-69 31.5t-25 79.5q0 117 61 209t158 140t209 48q186 0 299 -105.5t113 -291.5 q0 -63 -21.5 -122.5t-54.5 -106t-85 -95t-99 -83t-111 -77.5q-73 -48 -124.5 -89t-99.5 -92t-72.5 -107t-24.5 -117h628q50 0 76.5 -18t26.5 -66q0 -47 -26.5 -65.5t-76.5 -18.5h-702q-47 0 -79 34.5t-32 80.5z" />
<glyph unicode="3" d="M127 430q0 48 24.5 76.5t69.5 28.5q47 0 72 -25t29 -80q11 -137 80.5 -210t211.5 -73q143 0 216 78t73 205q0 256 -282 256h-66q-109 0 -109 84t109 84h53q110 0 176 57t66 154q0 108 -62.5 164.5t-185.5 56.5q-98 0 -160 -59.5t-77 -159.5q-8 -54 -31 -81.5t-68 -27.5 q-44 0 -68 30.5t-24 78.5q0 162 119.5 274.5t308.5 112.5q206 0 321 -98.5t115 -290.5q0 -106 -53.5 -185t-134.5 -98q113 -42 177.5 -134.5t64.5 -217.5q0 -204 -134 -327t-344 -123q-212 0 -349.5 125t-137.5 325z" />
<glyph unicode="4" d="M82 438q0 37 18 64l623 903q34 49 92 49q35 0 62 -18q15 -11 22.5 -29.5t8.5 -31t1 -38.5v-825h138q104 0 104 -84t-104 -84h-138v-233q0 -47 -26 -79t-70 -32t-68 31.5t-24 79.5v233h-528q-47 0 -79 23t-32 71zM311 512h410v592z" />
<glyph unicode="5" d="M160 395q0 46 22 71.5t62 25.5q43 0 65 -20.5t31 -76.5q19 -112 88 -180t193 -68q141 0 211.5 89t70.5 243q0 142 -73.5 220.5t-208.5 78.5q-149 0 -275 -114q-26 -23 -61 -23q-40 0 -67.5 25.5t-27.5 78.5q0 4 3 25l77 569q6 40 38 67.5t73 27.5h555q51 0 74.5 -19.5 t23.5 -64.5t-23.5 -64.5t-74.5 -19.5h-504l-51 -392q43 30 113.5 51t138.5 21q202 0 330.5 -121t128.5 -346q0 -223 -128 -361t-343 -138q-196 0 -328.5 120t-132.5 295z" />
<glyph unicode="6" d="M168 510v399q0 244 138 394.5t360 150.5q296 0 428 -221q20 -36 20 -68q0 -40 -28 -67t-66 -27q-57 0 -90 62q-46 88 -111.5 120.5t-152.5 32.5q-148 0 -229 -109t-81 -288v-86q25 55 111 101t186 46q217 0 351.5 -128t134.5 -357q0 -216 -136.5 -350.5t-349.5 -134.5 q-225 0 -355 139t-130 391zM356 465q0 -146 76 -232t221 -86t221 86t76 232t-76 231.5t-221 85.5t-221 -85.5t-76 -231.5z" />
<glyph unicode="7" d="M133 1350q0 84 105 84h759q50 0 79.5 -27t29.5 -70q0 -15 -6 -30l-504 -1233q-25 -74 -100 -74q-37 0 -58.5 20.5t-21.5 57.5q0 32 14 67l455 1121h-647q-47 0 -76 21t-29 63z" />
<glyph unicode="8" d="M160 420q0 124 45.5 205.5t154.5 148.5q-72 46 -114.5 127.5t-42.5 165.5q0 177 121 282t311 105t311 -105t121 -282q0 -84 -43 -165.5t-115 -127.5q109 -67 155 -148.5t46 -205.5q0 -105 -37 -189.5t-102 -138.5t-151 -83t-185 -29t-185 29t-151 83t-102 138.5 t-37 189.5zM348 420q0 -118 77 -195.5t210 -77.5t210 77.5t77 195.5t-77 195t-210 77t-210 -77t-77 -195zM387 1067q0 -95 65 -157t183 -62t183 62t65 157t-65 157t-183 62t-183 -62t-65 -157z" />
<glyph unicode="9" d="M162 969q0 216 136 350.5t349 134.5q225 0 355.5 -139t130.5 -391v-400q0 -244 -138 -394t-360 -150q-296 0 -428 221q-21 37 -21 67q0 40 28.5 67t66.5 27q57 0 90 -61q46 -88 111.5 -121t152.5 -33q148 0 228.5 109.5t80.5 288.5v86q-25 -55 -111 -101.5t-186 -46.5 q-217 0 -351 128.5t-134 357.5zM350 969q0 -146 76 -232t221 -86t221 86t76 232t-76 231.5t-221 85.5t-221 -85.5t-76 -231.5z" />
<glyph unicode=":" d="M469 166q0 70 47.5 118t118.5 48t118.5 -48t47.5 -118t-47.5 -118t-118.5 -48t-118.5 48t-47.5 118zM469 879q0 70 47.5 117.5t118.5 47.5t118.5 -47.5t47.5 -117.5q0 -71 -47.5 -118.5t-118.5 -47.5t-118.5 47.5t-47.5 118.5z" />
<glyph unicode=";" d="M459 -195q0 35 26 54q48 30 59 60.5t11 98.5q-39 21 -62.5 59.5t-23.5 86.5q0 71 48 119.5t118 48.5q71 0 119.5 -49t48.5 -119v-14q-4 -94 -57 -178t-150 -183q-41 -41 -80 -41q-18 0 -35 14q-22 16 -22 43zM469 879q0 70 47.5 117.5t118.5 47.5t118.5 -47.5 t47.5 -117.5q0 -71 -47.5 -118.5t-118.5 -47.5t-118.5 47.5t-47.5 118.5z" />
<glyph unicode="&#x3c;" d="M158 524q0 47 32 66l670 442q25 17 53 17q34 0 55 -23.5t21 -56.5q0 -49 -45 -78l-557 -367l557 -366q45 -29 45 -78q0 -33 -21 -56.5t-55 -23.5q-29 0 -53 16l-670 443q-32 19 -32 65z" />
<glyph unicode="=" d="M119 473q0 47 26.5 66.5t77.5 19.5h826q51 0 77.5 -19.5t26.5 -66.5t-26.5 -66.5t-77.5 -19.5h-826q-51 0 -77.5 19.5t-26.5 66.5zM119 862q0 47 26.5 66.5t77.5 19.5h826q51 0 77.5 -19.5t26.5 -66.5t-26.5 -66.5t-77.5 -19.5h-826q-51 0 -77.5 19.5t-26.5 66.5z" />
<glyph unicode="&#x3e;" d="M158 80q0 49 45 78l557 366l-557 367q-45 29 -45 78q0 34 20.5 57t54.5 23q29 0 54 -17l669 -442q33 -20 33 -66q0 -45 -33 -65l-669 -443q-24 -16 -54 -16q-34 0 -54.5 23t-20.5 57z" />
<glyph unicode="?" d="M233 1100q0 66 27 129t76.5 113.5t127.5 81t171 30.5q82 0 153.5 -20.5t127.5 -60.5t88 -105.5t32 -149.5q0 -33 -5 -62t-19 -56.5t-23.5 -45.5t-34 -44.5t-34.5 -36.5t-41 -38t-37 -34q-56 -53 -85.5 -103t-29.5 -127q0 -102 -92 -102q-49 0 -70.5 29t-21.5 73 q0 183 164 322q69 58 107 109.5t38 107.5q0 88 -60.5 134t-156.5 46q-102 0 -155.5 -51.5t-61.5 -144.5q-3 -41 -28 -64.5t-64 -23.5q-42 0 -67.5 26.5t-25.5 67.5zM469 166q0 70 47.5 118t118.5 48t118.5 -48t47.5 -118t-47.5 -118t-118.5 -48t-118.5 48t-47.5 118z" />
<glyph unicode="@" d="M61 547q0 217 79.5 384.5t230.5 262t352 94.5q197 0 316.5 -99t119.5 -271v-633q0 -105 -80 -105q-34 0 -58 22.5t-28 61.5q-62 -98 -200 -98q-155 0 -258 106t-103 275q0 163 102.5 272t258.5 109q123 0 186 -70v33q0 126 -65 184t-191 58q-230 0 -355.5 -156.5 t-125.5 -429.5q0 -259 141.5 -422.5t376.5 -163.5q142 0 244 51q27 15 53 15q32 0 50.5 -19.5t18.5 -50.5q0 -55 -61 -88q-123 -64 -305 -64q-215 0 -375 97.5t-242 264.5t-82 380zM612 547q0 -98 48.5 -161.5t134.5 -63.5t135 63.5t49 161.5t-49 161.5t-135 63.5 t-134.5 -63.5t-48.5 -161.5z" />
<glyph unicode="A" d="M82 98q0 23 8 47l457 1201q11 28 18.5 43t26 30t43.5 15t43.5 -15t26 -30t18.5 -43l457 -1201q8 -24 8 -47q0 -44 -27 -71t-71 -27q-65 0 -91 68l-135 344h-458l-136 -344q-26 -68 -90 -68q-44 0 -71 27t-27 71zM473 592h324l-162 467z" />
<glyph unicode="B" d="M195 111v1212q0 47 31.5 79t78.5 32h408q169 0 284 -108t115 -298q0 -109 -48.5 -182t-117.5 -107q104 -35 171 -123.5t67 -207.5q0 -175 -110.5 -291.5t-280.5 -116.5h-486q-49 0 -80.5 31.5t-31.5 79.5zM391 180h387q107 0 158 58t51 163q0 106 -53.5 170t-169.5 64 h-373v-455zM391 815h309q107 0 161 57.5t54 155.5q0 99 -55 162t-160 63h-309v-438z" />
<glyph unicode="C" d="M106 717q0 341 156 539t434 198q140 0 245 -38.5t204 -139.5q37 -37 37 -80q0 -40 -32 -70t-71 -30t-67 32q-129 146 -316 146q-83 0 -149.5 -32t-110.5 -85t-73.5 -125.5t-42.5 -151t-13 -163.5t13 -163.5t42.5 -151t73.5 -125.5t110.5 -85t149.5 -32q188 0 316 145 q29 33 67 33q39 0 71 -30t32 -70q0 -43 -37 -80q-99 -101 -204 -139.5t-245 -38.5q-278 0 -434 198t-156 539z" />
<glyph unicode="D" d="M172 111v1212q0 47 32 79t79 32h348q173 0 298.5 -93t188 -253.5t62.5 -370.5t-62.5 -370.5t-188 -253.5t-298.5 -93h-346q-49 0 -81 31.5t-32 79.5zM369 180h266q168 0 258 147t90 390t-90 389.5t-258 146.5h-266v-1073z" />
<glyph unicode="E" d="M152 111v1212q0 46 31.5 78.5t78.5 32.5h725q107 0 107 -91q0 -90 -107 -90h-639v-426h471q103 0 103 -90t-103 -90h-471v-467h670q108 0 108 -90t-108 -90h-756q-47 0 -78.5 32t-31.5 79z" />
<glyph unicode="F" d="M152 111v1212q0 46 31.5 78.5t78.5 32.5h744q106 0 106 -91q0 -90 -106 -90h-658v-444h490q102 0 102 -90t-102 -90h-490v-518q0 -49 -24 -80t-70 -31t-74 31.5t-28 79.5z" />
<glyph unicode="G" d="M61 719q0 154 38.5 286.5t111 233t186 158t254.5 57.5q140 0 245 -38.5t204 -139.5q37 -37 37 -80q0 -44 -30 -72t-73 -28q-39 0 -67 32q-129 146 -316 146q-83 0 -150 -31t-111 -83t-73.5 -124t-42 -150.5t-12.5 -166.5q0 -89 13 -168.5t42.5 -152t73.5 -124.5 t110.5 -83t149.5 -31q95 0 169.5 28.5t137.5 112.5v287h-262q-106 0 -106 90t106 90h348q46 0 78.5 -32t32.5 -79v-546q0 -48 -23 -79.5t-67 -31.5q-42 0 -69.5 24.5t-37.5 59.5q-114 -104 -305 -104q-142 0 -256 57.5t-186.5 158.5t-111 234.5t-38.5 288.5z" />
<glyph unicode="H" d="M139 111v1212q0 49 25.5 80t73.5 31t73 -31t25 -80v-502h594v502q0 49 25 80t73 31t73 -31t25 -80v-1212q0 -49 -25 -80t-73 -31t-73 31t-25 80v530h-594v-530q0 -49 -25 -80t-73 -31t-73.5 31t-25.5 80z" />
<glyph unicode="I" d="M190 90q0 90 111 90h217v1073h-217q-111 0 -111 90q0 91 111 91h631q110 0 110 -91q0 -90 -110 -90h-217v-1073h217q110 0 110 -90t-110 -90h-631q-111 0 -111 90z" />
<glyph unicode="J" d="M109 233q0 45 28.5 76t77.5 31q40 0 66 -33q45 -58 75 -85.5t77.5 -44.5t117.5 -17q142 0 206 103.5t64 309.5v750q0 49 25.5 80t73.5 31t73 -31t25 -80v-764q0 -292 -112.5 -435.5t-354.5 -143.5q-134 0 -226.5 42t-181.5 134q-34 34 -34 77z" />
<glyph unicode="K" d="M168 111v1212q0 46 27.5 78.5t70.5 32.5t71 -32.5t28 -78.5v-563l503 633q33 41 82 41q40 0 66 -24t26 -62q0 -44 -36 -88l-312 -381l465 -715q17 -31 17 -58q0 -44 -28 -75t-67 -31q-61 0 -92 51l-418 672l-206 -246v-366q0 -50 -26 -80.5t-73 -30.5q-46 0 -72 30.5 t-26 80.5z" />
<glyph unicode="L" d="M264 111v1212q0 49 25 80t73 31t73.5 -31t25.5 -80v-1143h639q104 0 104 -90t-104 -90h-725q-47 0 -79 32t-32 79z" />
<glyph unicode="M" d="M123 111v1214q0 48 25 78.5t71 30.5q36 0 54.5 -14t33.5 -40l328 -641l328 641q15 26 33.5 40t54.5 14q46 0 71 -30.5t25 -78.5v-1214q0 -49 -25 -80t-73 -31t-73.5 31t-25.5 80v872l-229 -448q-28 -54 -86 -54t-86 54l-230 448v-872q0 -49 -25 -80t-73 -31t-73 31 t-25 80z" />
<glyph unicode="N" d="M137 111v1214q3 48 27.5 78.5t66.5 30.5q55 0 91 -45l614 -973v907q0 47 26.5 79t69.5 32q45 0 73 -32t28 -79v-1214q0 -44 -28.5 -76.5t-70.5 -32.5q-56 0 -92 45l-608 973v-907q0 -47 -27.5 -79t-70.5 -32q-45 0 -72 32t-27 79z" />
<glyph unicode="O" d="M61 717q0 158 36.5 291t107 233t181 156.5t249.5 56.5t249.5 -56.5t180.5 -156.5t106.5 -233t36.5 -291t-36.5 -291t-106.5 -233t-180.5 -156.5t-249.5 -56.5t-249.5 56.5t-181 156.5t-107 233t-36.5 291zM262 717q0 -163 39.5 -286.5t125 -197t208.5 -73.5t208.5 73.5 t125 197t39.5 286.5t-39.5 286.5t-125 197t-208.5 73.5t-208.5 -73.5t-125 -197t-39.5 -286.5z" />
<glyph unicode="P" d="M186 111v1212q0 44 34 76.5t79 34.5h406q230 0 356.5 -119t126.5 -328q0 -217 -124 -327.5t-359 -110.5h-322v-438q0 -48 -26.5 -79.5t-71.5 -31.5q-48 0 -73.5 31t-25.5 80zM383 729h358q126 0 188 68.5t62 193.5q0 123 -62.5 192.5t-187.5 69.5h-358v-524z" />
<glyph unicode="Q" d="M61 717q0 158 36.5 291t107 233t181 156.5t249.5 56.5t249.5 -56.5t180.5 -156.5t106.5 -233t36.5 -291q0 -273 -106 -465l78 -80q30 -30 30 -72q0 -39 -30 -69q-31 -31 -68 -31q-39 0 -70 31l-63 67q-140 -118 -344 -118q-139 0 -249.5 56.5t-181 156.5t-107 233 t-36.5 291zM262 717q0 -163 39.5 -286.5t125 -197t208.5 -73.5q126 0 209 71l-49 52q-31 36 -31 71q0 39 31 70t67 31q39 0 70 -31l24 -25q52 131 52 318q0 163 -39.5 286.5t-125 197t-208.5 73.5t-208.5 -73.5t-125 -197t-39.5 -286.5z" />
<glyph unicode="R" d="M184 111v1212q0 44 34 76.5t79 34.5h403q221 0 343 -120t122 -317q0 -144 -72 -248.5t-200 -152.5l272 -418q25 -39 25 -74q0 -50 -30 -77t-75 -27q-49 0 -81 49l-322 520h-301v-458q0 -48 -26.5 -79.5t-71.5 -31.5q-48 0 -73.5 31t-25.5 80zM381 750h332q126 0 191 65 t65 182q0 120 -65 188t-191 68h-332v-503z" />
<glyph unicode="S" d="M74 317q0 43 27 72t71 29q54 0 90 -56q66 -108 147.5 -155t225.5 -47q149 0 227 59.5t78 177.5q0 76 -45 127t-116.5 78.5t-158.5 49t-173.5 47.5t-158 63.5t-116.5 108t-45 171.5q0 102 40.5 182.5t110 129.5t156.5 74.5t184 25.5q309 0 441 -221q26 -45 26 -84 q0 -47 -29 -74.5t-71 -27.5q-59 0 -88 59q-42 90 -108.5 129t-170.5 39q-135 0 -214.5 -56.5t-79.5 -175.5q0 -46 28 -80t75 -56.5t108 -40.5t128.5 -36t134.5 -39t128 -54t108 -75.5t75 -109t28 -150.5q0 -102 -42.5 -184.5t-113.5 -133t-160 -77t-186 -26.5 q-365 0 -537 264q-24 40 -24 73z" />
<glyph unicode="T" d="M55 1343q0 91 111 91h938q110 0 110 -91q0 -90 -110 -90h-371v-1142q0 -48 -25.5 -79.5t-72.5 -31.5t-72.5 31.5t-25.5 79.5v1142h-371q-111 0 -111 90z" />
<glyph unicode="U" d="M127 522v801q0 47 27.5 79t72.5 32q43 0 70 -32t27 -79v-795q0 -193 83.5 -280.5t241.5 -87.5q157 0 239.5 87.5t82.5 280.5v795q0 47 26.5 79t71.5 32t71.5 -32t26.5 -79v-795q0 -248 -135 -398t-383 -150q-166 0 -285.5 70.5t-178 191.5t-58.5 280z" />
<glyph unicode="V" d="M92 1327q0 48 30.5 77.5t74.5 29.5q64 0 88 -68l356 -1010l356 1010q24 68 88 68q44 0 74.5 -29.5t30.5 -77.5q0 -18 -6 -39l-453 -1220q-13 -34 -33 -51t-57 -17t-57 17t-33 51l-453 1220q-6 21 -6 39z" />
<glyph unicode="W" d="M53 1337q0 97 90 97q82 0 95 -74l102 -868l199 702q11 39 33.5 57.5t62.5 18.5t62.5 -18.5t33.5 -57.5l199 -702l102 868q13 74 94 74q91 0 91 -97q0 -18 -5 -43l-153 -1220q-11 -38 -31 -56t-59 -18q-34 0 -53.5 16.5t-34.5 57.5l-246 827l-246 -827 q-15 -41 -34.5 -57.5t-53.5 -16.5q-39 0 -59 18t-31 56l-154 1220q-4 20 -4 43z" />
<glyph unicode="X" d="M74 88q0 29 18 59l416 588l-389 551q-19 32 -19 60q0 38 26 63t69 25q27 0 43 -10t32 -33l351 -496l350 496q16 23 32.5 33t43.5 10q43 0 68.5 -25t25.5 -63q0 -28 -19 -60l-389 -551l416 -588q18 -30 18 -59q0 -38 -25.5 -63t-68.5 -25q-27 0 -43.5 10t-32.5 33 l-376 532l-377 -532q-16 -23 -32.5 -33t-43.5 -10q-43 0 -68.5 25t-25.5 63z" />
<glyph unicode="Y" d="M92 1333q0 55 45 86q22 15 60 15q58 0 86 -43l352 -560l352 560q31 45 86 45q34 0 64 -21q41 -28 41 -82q0 -35 -19 -63l-426 -643v-521q0 -45 -27.5 -75.5t-70.5 -30.5t-70.5 30.5t-27.5 75.5v521l-426 643q-19 24 -19 63z" />
<glyph unicode="Z" d="M109 100q0 32 16 64l727 1089h-625q-100 0 -100 88q0 45 26.5 69t73.5 24h791q54 0 85.5 -24t31.5 -67q0 -33 -25 -75l-723 -1088h672q47 0 74.5 -23t27.5 -67t-27.5 -67t-74.5 -23h-844q-47 0 -76.5 28t-29.5 72z" />
<glyph unicode="[" d="M410 -231v1634q0 40 27 68t77 28h350q94 0 94 -82t-94 -82h-270v-1499h270q94 0 94 -82t-94 -82h-350q-50 0 -77 28.5t-27 68.5z" />
<glyph unicode="\" d="M37 1341q0 34 32.5 63.5t65.5 29.5q37 0 62 -35l968 -1258q21 -27 21 -51q0 -34 -32.5 -62t-66.5 -28q-36 0 -61 35l-969 1255q-20 26 -20 51z" />
<glyph unicode="]" d="M410 -246q0 82 94 82h270v1499h-270q-94 0 -94 82t94 82h350q50 0 77 -28t27 -68v-1634q0 -40 -27 -68.5t-77 -28.5h-350q-94 0 -94 82z" />
<glyph unicode="^" d="M119 678q0 29 16 53l443 670q20 33 65 33q46 0 66 -33l442 -670q16 -24 16 -53q0 -34 -23.5 -55t-56.5 -21q-48 0 -77 45l-367 559l-367 -559q-29 -45 -77 -45q-33 0 -56.5 21t-23.5 55z" />
<glyph unicode="_" d="M119 -86q0 47 26.5 66.5t77.5 19.5h826q51 0 77.5 -19.5t26.5 -66.5t-26.5 -66.5t-77.5 -19.5h-826q-51 0 -77.5 19.5t-26.5 66.5z" />
<glyph unicode="`" d="M389 1860q0 35 25.5 60.5t62.5 25.5q25 0 55 -15l250 -127q56 -29 56 -82q0 -37 -24.5 -64.5t-61.5 -27.5q-18 0 -41 10l-277 142q-45 23 -45 78z" />
<glyph unicode="a" d="M141 512q0 105 32 200t91.5 169.5t152 118.5t204.5 44q85 0 164 -32.5t124 -93.5q3 49 27.5 77.5t64.5 28.5q44 0 71.5 -27t27.5 -75v-820q0 -48 -27.5 -75t-71.5 -27q-40 0 -64.5 28.5t-27.5 77.5q-45 -61 -124 -93.5t-164 -32.5q-116 0 -209 44t-151 119t-89 169.5 t-31 199.5zM326 512q0 -164 81 -266.5t214 -102.5t213.5 102.5t80.5 266.5t-80.5 266.5t-213.5 102.5t-214 -102.5t-81 -266.5z" />
<glyph unicode="b" d="M211 100v1233q0 42 26 71.5t66 29.5t66 -29.5t26 -71.5v-418q35 57 116 93t171 36q150 0 259 -71.5t162.5 -190.5t53.5 -270q0 -249 -126 -390.5t-349 -141.5q-89 0 -169 31t-118 89q-3 -42 -29.5 -71t-62.5 -29q-41 0 -66.5 28.5t-25.5 71.5zM395 512q0 -170 75 -269.5 t214 -99.5t214 99.5t75 269.5q0 172 -75 270.5t-214 98.5t-214 -98.5t-75 -270.5z" />
<glyph unicode="c" d="M141 512q0 150 59.5 269.5t176.5 191t272 71.5q139 0 224.5 -40t154.5 -113q41 -41 41 -86q0 -40 -23.5 -67t-64.5 -27q-43 0 -76 45q-54 73 -107.5 99t-148.5 26q-146 0 -234.5 -106t-88.5 -263t88.5 -263t234.5 -106q95 0 148.5 26t107.5 99q33 45 76 45q41 0 64.5 -27 t23.5 -67q0 -45 -41 -86q-69 -73 -154.5 -113t-224.5 -40q-155 0 -272 71.5t-176.5 191t-59.5 269.5z" />
<glyph unicode="d" d="M139 512q0 151 53.5 270t162.5 190.5t259 71.5q90 0 171 -36t116 -93v418q0 42 26 71.5t66 29.5t66 -29.5t26 -71.5v-1233q0 -43 -25.5 -71.5t-66.5 -28.5q-36 0 -62.5 29t-29.5 71q-38 -58 -118 -89t-169 -31q-223 0 -349 141.5t-126 390.5zM324 512q0 -171 74.5 -270 t213.5 -99t214 99.5t75 269.5q0 172 -75 270.5t-214 98.5t-213.5 -98.5t-74.5 -270.5z" />
<glyph unicode="e" d="M141 512q0 150 59.5 269.5t176.5 191t272 71.5q218 0 356 -144t138 -359q0 -49 -27.5 -76t-75.5 -27h-708q16 -122 101 -208.5t216 -86.5q198 0 307 125q30 35 72 35t66 -29.5t24 -66.5t-33 -70q-162 -157 -436 -157q-155 0 -272 71.5t-176.5 191t-59.5 269.5zM332 602 h620q-31 124 -106 201.5t-197 77.5q-125 0 -210.5 -81t-106.5 -198z" />
<glyph unicode="f" d="M113 942q0 40 26 61t70 21h266q0 115 28 201t76 134.5t105.5 71.5t124.5 23q101 0 162.5 -15t126.5 -61q27 -22 38 -39.5t11 -40.5q0 -43 -25.5 -67.5t-60.5 -24.5q-29 0 -53 21q-47 40 -88.5 51.5t-102.5 11.5q-78 0 -118 -77t-40 -189h371q44 0 70 -21t26 -61 q0 -82 -96 -82h-371v-758q0 -44 -25 -73t-67 -29q-41 0 -66.5 29.5t-25.5 72.5v758h-266q-96 0 -96 82z" />
<glyph unicode="g" d="M113 512q0 105 32.5 200t91.5 169.5t152 118.5t205 44q187 0 289 -110q6 40 28 65t58 25q45 0 71.5 -29t26.5 -73v-803q0 -95 -16 -176t-52 -150.5t-90.5 -118.5t-134.5 -76.5t-180 -27.5q-166 0 -272 57.5t-183 184.5q-18 30 -18 61q0 42 30.5 71t73.5 29q60 0 88 -57 q34 -65 65 -101t84.5 -58.5t131.5 -22.5q148 0 218.5 96.5t70.5 259.5q-49 -54 -127 -82t-162 -28q-109 0 -201.5 44t-152.5 118.5t-93.5 170t-33.5 199.5zM297 512q0 -159 79.5 -264t217.5 -105q96 0 162.5 50.5t96.5 131.5t30 187t-30 187t-96.5 131.5t-162.5 50.5 q-138 0 -217.5 -105t-79.5 -264z" />
<glyph unicode="h" d="M219 100v1233q0 42 26 71.5t66 29.5t66 -29.5t26 -71.5v-450q23 65 108 113t181 48q187 0 287 -93t100 -302v-549q0 -43 -25 -71.5t-67 -28.5q-40 0 -66 29t-26 71v508q0 145 -45.5 209t-157.5 64q-134 0 -211.5 -109.5t-77.5 -286.5v-385q0 -42 -26 -71t-66 -29t-66 29 t-26 71z" />
<glyph unicode="i" d="M207 82q0 40 28 61t72 21h297v696h-229q-44 0 -72.5 21.5t-28.5 60.5t28.5 60.5t72.5 21.5h321q39 0 65.5 -23.5t26.5 -58.5v-778h297q44 0 72.5 -21.5t28.5 -60.5t-28.5 -60.5t-72.5 -21.5h-778q-44 0 -72 21t-28 61zM561 1305q0 54 38 91.5t91 37.5q54 0 91.5 -38 t37.5 -91q0 -54 -38 -91.5t-91 -37.5q-54 0 -91.5 38t-37.5 91z" />
<glyph unicode="j" d="M188 -258q0 36 24 62t60 26q30 0 56 -20q38 -30 58 -42.5t56.5 -23t85.5 -10.5q71 0 114.5 42.5t43.5 137.5v946h-229q-44 0 -72.5 21.5t-28.5 60.5t28.5 60.5t72.5 21.5h321q39 0 65.5 -23.5t26.5 -58.5v-1044q0 -169 -91.5 -248.5t-241.5 -79.5q-93 0 -160.5 20.5 t-128.5 63.5q-60 43 -60 88zM643 1305q0 54 38 91.5t91 37.5q54 0 91.5 -38t37.5 -91q0 -54 -38 -91.5t-91 -37.5q-54 0 -91.5 38t-37.5 91z" />
<glyph unicode="k" d="M262 100v1233q0 42 26 71.5t66 29.5t66 -29.5t26 -71.5v-727l365 385q29 33 72 33q42 0 68 -25.5t26 -64.5q0 -35 -25 -60l-227 -237l334 -496q16 -24 16 -53q0 -38 -26 -63t-64 -25q-57 0 -86 47l-305 453l-148 -158v-242q0 -42 -26 -71t-66 -29t-66 29t-26 71z" />
<glyph unicode="l" d="M207 82q0 40 28 61t72 21h297v1106h-229q-44 0 -72.5 21.5t-28.5 60.5t28.5 60.5t72.5 21.5h321q39 0 65.5 -23.5t26.5 -58.5v-1188h297q44 0 72.5 -21.5t28.5 -60.5t-28.5 -60.5t-72.5 -21.5h-778q-44 0 -72 21t-28 61z" />
<glyph unicode="m" d="M98 100v824q0 42 26 71t66 29q41 0 67 -29t26 -71v-23q15 58 68 100.5t128 42.5q190 0 234 -145q19 59 77.5 102t143.5 43q128 0 193 -74.5t65 -203.5v-666q0 -43 -25 -71.5t-67 -28.5q-40 0 -66 29t-26 71v615q0 88 -27.5 127t-89.5 39q-78 0 -116 -74.5t-38 -202.5 v-504q0 -43 -25 -71.5t-67 -28.5q-40 0 -66 29t-26 71v615q0 88 -27 127t-90 39q-153 0 -153 -301v-480q0 -42 -26 -71t-67 -29q-40 0 -66 29t-26 71z" />
<glyph unicode="n" d="M219 100v824q0 42 26 71t66 29t66 -29t26 -71v-41q23 65 108 113t181 48q187 0 287 -93t100 -302v-549q0 -43 -25 -71.5t-67 -28.5q-40 0 -66 29t-26 71v508q0 145 -45.5 209t-157.5 64q-134 0 -211.5 -109.5t-77.5 -286.5v-385q0 -42 -26 -71t-66 -29t-66 29t-26 71z " />
<glyph unicode="o" d="M143 512q0 230 136 381t354 151t353.5 -151t135.5 -381q0 -151 -59.5 -271.5t-171.5 -190.5t-258 -70q-218 0 -354 151t-136 381zM328 512q0 -170 84 -269.5t221 -99.5t221 99.5t84 269.5t-84 269.5t-221 99.5t-221 -99.5t-84 -269.5z" />
<glyph unicode="p" d="M211 -309v1233q0 43 25.5 71.5t66.5 28.5q36 0 62.5 -29t29.5 -71q38 58 118 89t169 31q223 0 349 -141.5t126 -390.5q0 -151 -53.5 -270t-162.5 -190.5t-259 -71.5q-90 0 -171 36t-116 93v-418q0 -42 -26 -71.5t-66 -29.5t-66 29.5t-26 71.5zM395 512q0 -172 75 -270.5 t214 -98.5t214 98.5t75 270.5q0 170 -75 269.5t-214 99.5t-214 -99.5t-75 -269.5z" />
<glyph unicode="q" d="M162 512q0 249 126 390.5t349 141.5q89 0 169 -31t118 -89q3 42 29.5 71t62.5 29q41 0 66.5 -28.5t25.5 -71.5v-1233q0 -42 -26 -71.5t-66 -29.5t-66 29.5t-26 71.5v418q-35 -57 -116 -93t-171 -36q-150 0 -259 71.5t-162.5 190.5t-53.5 270zM346 512q0 -172 75 -270.5 t214 -98.5t214 98.5t75 270.5q0 170 -75 269.5t-214 99.5t-214 -99.5t-75 -269.5z" />
<glyph unicode="r" d="M303 104v816q0 44 25 74t67 30t67 -30t25 -74v-46q37 65 122 117.5t184 52.5q256 0 350 -192q12 -24 12 -49q0 -42 -31.5 -70t-70.5 -28q-53 0 -78 57q-57 119 -182 119q-77 0 -137 -33.5t-96 -91t-54.5 -129.5t-18.5 -154v-369q0 -44 -25 -74t-67 -30t-67 30t-25 74z " />
<glyph unicode="s" d="M213 223q0 39 24.5 67.5t65.5 28.5q30 0 48 -10.5t36 -34.5q98 -131 272 -131q120 0 187 40.5t67 121.5q0 22 -8.5 39.5t-30 30.5t-40.5 21.5t-57 16t-61 11t-71 10.5q-67 10 -115 20t-105 32t-92 51t-59 78t-24 112q0 79 34 141.5t91.5 100t127 56.5t146.5 19 q131 0 220.5 -39.5t154.5 -130.5q20 -26 20 -59q0 -40 -27.5 -66t-70.5 -26q-45 0 -72 43q-69 115 -225 115q-102 0 -158.5 -38t-56.5 -108q0 -27 14.5 -49t37 -36.5t59 -26t71 -18t82.5 -13.5q37 -5 58.5 -8.5t57 -9.5t56.5 -12.5t51.5 -16t49.5 -20.5t41.5 -26t36 -33.5 t26 -41t18 -50.5t5.5 -61q0 -155 -125.5 -244t-317.5 -89q-272 0 -415 176q-27 34 -27 67z" />
<glyph unicode="t" d="M113 942q0 82 96 82h266v328q0 43 25.5 72.5t66.5 29.5q42 0 67 -29t25 -73v-328h371q96 0 96 -82q0 -40 -26 -61t-70 -21h-371v-536q0 -94 44.5 -137.5t113.5 -43.5q49 0 85.5 10.5t57 23.5t58.5 42q27 21 55 21q40 0 62 -25.5t22 -62.5q0 -47 -59 -89q-61 -43 -128 -63 t-161 -20q-72 0 -131 18t-105.5 56t-72 102t-25.5 151v553h-266q-44 0 -70 21t-26 61z" />
<glyph unicode="u" d="M219 375v549q0 43 25 71.5t67 28.5q40 0 66 -29t26 -71v-508q0 -145 45.5 -209t157.5 -64q134 0 211.5 109.5t77.5 286.5v385q0 42 26 71t66 29t66 -29t26 -71v-824q0 -42 -26 -71t-66 -29t-66 29t-26 71v41q-23 -65 -108 -113t-181 -48q-187 0 -287 93t-100 302z" />
<glyph unicode="v" d="M164 924q0 30 16 55t43 37q16 8 39 8q28 0 53 -16t37 -43l293 -662l293 662q12 27 37 43t53 16q23 0 39 -8q27 -12 43 -37t16 -55q0 -13 -8 -37l-385 -828q-26 -59 -88 -59t-88 59l-385 828q-8 16 -8 37z" />
<glyph unicode="w" d="M59 926q0 42 26.5 70t68.5 28q75 0 94 -68l137 -618l158 434q9 31 33 49.5t59 18.5t59 -18.5t33 -49.5l158 -434l137 618q19 68 94 68q42 0 68 -28t26 -70q0 -17 -4 -31l-207 -827q-9 -33 -34.5 -50.5t-59.5 -17.5q-68 0 -92 68l-178 491l-178 -491q-24 -68 -92 -68 q-34 0 -60 17.5t-35 50.5l-207 827q-4 14 -4 31z" />
<glyph unicode="x" d="M199 82q0 38 28 74l287 356l-287 356q-28 36 -28 74q0 30 27.5 56t60.5 26q46 0 86 -49l256 -322l256 322q40 49 86 49q33 0 60.5 -26t27.5 -56q0 -37 -29 -74l-287 -356l287 -356q29 -37 29 -74q0 -30 -27.5 -56t-60.5 -26q-46 0 -86 49l-256 320l-256 -320 q-40 -49 -86 -49q-33 0 -60.5 26t-27.5 56z" />
<glyph unicode="y" d="M92 -326q0 36 22.5 58t55.5 22q18 0 45 -10t51 -10q89 0 142 59.5t118 214.5l11 25l-379 854q-8 16 -8 37q0 30 16 55t43 37q16 8 39 8q28 0 53 -16t37 -43l303 -691l301 691q12 27 37 43t53 16q23 0 39 -8q27 -12 43 -37t16 -55q0 -13 -8 -37l-389 -856 q-43 -96 -77 -160t-77.5 -126t-87.5 -97t-100.5 -56.5t-124.5 -21.5q-174 0 -174 104z" />
<glyph unicode="z" d="M180 92q0 35 21 62l579 706h-471q-44 0 -73 20.5t-29 61.5t29 61.5t73 20.5h631q46 0 74 -23t28 -69q0 -32 -20 -62l-578 -706h521q45 0 73.5 -20.5t28.5 -61.5t-28.5 -61.5t-73.5 -20.5h-682q-47 0 -75 24.5t-28 67.5z" />
<glyph unicode="{" d="M166 586q0 37 22 59.5t60 22.5q93 0 148 68.5t55 199.5v467q0 40 27 68t77 28h330q94 0 94 -82t-94 -82h-250v-358q0 -176 -37 -256t-149 -135q112 -55 149 -135t37 -256v-359h250q94 0 94 -82t-94 -82h-330q-50 0 -77 28.5t-27 68.5v467q0 131 -55 199.5t-148 68.5 q-38 0 -60 22.5t-22 59.5z" />
<glyph unicode="|" d="M547 -72v1577q0 82 88 82t88 -82v-1577q0 -82 -88 -82t-88 82z" />
<glyph unicode="}" d="M166 -246q0 82 94 82h250v359q0 176 37 256t149 135q-112 55 -149 135t-37 256v358h-250q-94 0 -94 82t94 82h330q50 0 77 -28t27 -68v-467q0 -131 55 -199.5t148 -68.5q38 0 60 -22.5t22 -59.5t-22 -59.5t-60 -22.5q-93 0 -148 -68.5t-55 -199.5v-467q0 -40 -27 -68.5 t-77 -28.5h-330q-94 0 -94 82z" />
<glyph unicode="~" d="M188 608q0 39 35 74q89 92 228 92q51 0 106 -18.5t95 -41t93 -41t101 -18.5q69 0 119 47q36 31 69 31q32 0 53 -20t21 -56q0 -38 -35 -73q-89 -92 -227 -92q-55 0 -111 18.5t-94.5 40.5t-90.5 40.5t-99 18.5q-69 0 -119 -47q-36 -31 -70 -31q-32 0 -53 20t-21 56z" />
<glyph unicode="&#xa0;" />
<glyph unicode="&#xa1;" d="M469 858q0 70 47.5 118t118.5 48t118.5 -48t47.5 -118t-47.5 -118t-118.5 -48t-118.5 48t-47.5 118zM508 -293l37 739q4 109 90 109t90 -109l37 -739q-3 -137 -127 -137t-127 137z" />
<glyph unicode="&#xa2;" d="M121 717q0 209 115.5 354.5t316.5 171.5v119q0 92 76 92t76 -92v-117q104 -10 173 -48t130 -101q41 -41 41 -86q0 -40 -23.5 -67.5t-64.5 -27.5q-42 0 -76 46q-41 57 -82 84t-98 36v-731q56 7 97 36t83 87q33 45 76 45q41 0 64.5 -27t23.5 -67q0 -45 -41 -86 q-60 -63 -129.5 -102t-173.5 -50v-114q0 -92 -76 -92t-76 92v116q-201 26 -316.5 173t-115.5 356zM301 717q0 -134 68.5 -234t183.5 -127v723q-115 -27 -183.5 -128t-68.5 -234z" />
<glyph unicode="&#xa3;" d="M78 82q0 66 80 82q174 36 174 278v215h-74q-44 0 -72 21t-28 61t28 61t72 21h74v236q0 188 88.5 286.5t245.5 98.5q232 0 319 -195q12 -24 12 -47q0 -41 -31 -67.5t-69 -26.5q-52 0 -72 47q-29 76 -63.5 100.5t-95.5 24.5q-81 0 -117.5 -52.5t-36.5 -162.5v-242h197 q44 0 72 -21t28 -61t-28 -61t-72 -21h-197v-215q0 -98 -27.5 -169.5t-72.5 -108.5h467v168q0 44 21 72t61 28q39 0 60 -28t21 -72v-250q0 -82 -94 -82h-790q-38 0 -59 24.5t-21 57.5z" />
<glyph unicode="&#xa4;" d="M178 465q0 39 37 76l43 43q-59 89 -59 202q0 112 59 201l-43 45q-37 37 -37 76q0 28 25 53t53 25q39 0 76 -37l47 -47q93 57 199 57q110 0 198 -57l47 47q37 37 76 37q28 0 53 -25t25 -53q0 -39 -37 -76l-45 -45q61 -89 61 -201q0 -113 -61 -202l45 -43q37 -37 37 -76 q0 -28 -25 -53t-53 -25q-39 0 -76 37l-47 45q-90 -55 -198 -55q-106 0 -199 55l-47 -45q-37 -37 -76 -37q-28 0 -53 25t-25 53zM354 786q0 -95 66 -162t158 -67t157.5 67t65.5 162t-65.5 162.5t-157.5 67.5t-158 -67.5t-66 -162.5z" />
<glyph unicode="&#xa5;" d="M92 1333q0 55 45 86q22 15 60 15q58 0 86 -43l352 -560l352 558q31 45 86 45q34 0 64 -21q41 -28 41 -82q0 -35 -19 -63l-311 -469h119q51 0 77.5 -19.5t26.5 -66.5t-26.5 -66.5t-77.5 -19.5h-234v-164h234q51 0 77.5 -19.5t26.5 -66.5t-26.5 -66.5t-77.5 -19.5h-234 v-185q0 -45 -27.5 -75.5t-70.5 -30.5t-70.5 30.5t-27.5 75.5v185h-232q-51 0 -77.5 19.5t-26.5 66.5t26.5 66.5t77.5 19.5h232v164h-232q-51 0 -77.5 19.5t-26.5 66.5t26.5 66.5t77.5 19.5h117l-311 471q-19 24 -19 63z" />
<glyph unicode="&#xa6;" d="M547 -72v623q0 82 88 82t88 -82v-623q0 -82 -88 -82t-88 82zM547 883v622q0 82 88 82t88 -82v-622q0 -82 -88 -82t-88 82z" />
<glyph unicode="&#xa7;" d="M186 -168q0 49 25.5 72.5t69.5 23.5q54 0 88 -61q71 -133 217 -133q85 0 136.5 46t51.5 142q0 63 -32 112t-83.5 82t-113 63t-123.5 63t-113.5 72t-83.5 101t-32 140q0 74 29 142.5t83 119.5q-112 108 -112 270q0 180 102 273.5t266 93.5q139 0 224 -47.5t155 -151.5 q21 -34 21 -63q0 -49 -25.5 -72.5t-69.5 -23.5q-54 0 -88 61q-71 133 -217 133q-85 0 -136.5 -46t-51.5 -142q0 -63 32 -112t83.5 -82t113 -63t123.5 -63t113.5 -72t83.5 -101t32 -140q0 -74 -29 -142.5t-83 -119.5q112 -108 112 -270q0 -180 -102 -273.5t-266 -93.5 q-139 0 -224 47.5t-155 151.5q-21 34 -21 63zM373 553q0 -32 14 -59t34.5 -46.5t56 -40t65.5 -34t76.5 -34.5t76.5 -36q78 61 78 168q0 32 -14 59t-34 46t-55.5 40t-65.5 34.5t-77 34.5t-77 36q-78 -61 -78 -168z" />
<glyph unicode="&#xa8;" d="M225 1718q0 53 35.5 89t85.5 36q52 0 88.5 -36.5t36.5 -88.5q0 -49 -37 -85t-88 -36q-50 0 -85.5 36.5t-35.5 84.5zM616 1718q0 53 36.5 89t84.5 36q54 0 89.5 -36t35.5 -89q0 -49 -37 -85t-88 -36q-49 0 -85 36.5t-36 84.5z" />
<glyph unicode="&#xa9;" d="M53 725q0 124 47.5 233.5t128 184.5t187.5 118.5t223 43.5t223.5 -43.5t188 -118.5t128.5 -184.5t48 -233.5t-48 -233t-128.5 -184t-187.5 -118t-224 -43t-223.5 43t-187 118t-128 184t-47.5 233zM213 725q0 -87 28 -164.5t80 -138t134.5 -96t183.5 -35.5t184 35.5 t135.5 96t80.5 138t28 164.5t-28 165t-80.5 138.5t-135.5 96.5t-184 36t-183.5 -35.5t-134.5 -96.5t-80 -139t-28 -165zM344 725q0 125 83.5 209t211.5 84q154 0 227 -84q19 -22 19 -49t-18.5 -44.5t-45.5 -17.5q-31 0 -43 21q-27 40 -58.5 53.5t-80.5 13.5 q-75 0 -119.5 -51t-44.5 -135t44.5 -135t119.5 -51q49 0 80.5 13.5t58.5 53.5q12 21 43 21q27 0 45.5 -17.5t18.5 -44.5t-19 -49q-73 -84 -227 -84q-128 0 -211.5 84t-83.5 209z" />
<glyph unicode="&#xaa;" d="M242 1030q0 84 24 158t69.5 131.5t117 91t161.5 33.5q64 0 122.5 -27.5t92.5 -79.5q3 38 26 64t54 26q38 0 61 -21t23 -58v-637q0 -37 -23 -58.5t-61 -21.5q-31 0 -54 26.5t-26 63.5q-34 -51 -92.5 -79t-122.5 -28q-92 0 -164.5 33.5t-117 92t-67.5 132t-23 158.5z M397 1030q0 -128 58 -203t159 -75q100 0 160 75.5t60 202.5q0 126 -60 202.5t-160 76.5t-158.5 -76t-58.5 -203z" />
<glyph unicode="&#xab;" d="M137 535q0 32 33 65l379 387q33 33 69 33q33 0 53.5 -20.5t20.5 -53.5q0 -38 -35 -76l-321 -335l321 -336q35 -38 35 -76q0 -33 -20.5 -53.5t-53.5 -20.5q-36 0 -69 33l-379 387q-33 33 -33 66zM526 535q0 32 33 65l379 387q33 33 70 33q33 0 53 -20.5t20 -53.5 q0 -39 -34 -76l-322 -335l322 -336q34 -37 34 -76q0 -33 -20 -53.5t-53 -20.5q-37 0 -70 33l-379 387q-33 33 -33 66z" />
<glyph unicode="&#xac;" d="M113 799q0 86 104 86h787q43 0 67.5 -23t24.5 -65v-387q0 -42 -26 -71.5t-66 -29.5q-41 0 -67 29.5t-26 71.5v303h-694q-104 0 -104 86z" />
<glyph unicode="&#xad;" d="M213 616q0 47 26.5 66.5t77.5 19.5h639q105 0 105 -86t-105 -86h-639q-51 0 -77.5 19.5t-26.5 66.5z" />
<glyph unicode="&#xae;" d="M53 725q0 124 47.5 233.5t128 184.5t187.5 118.5t223 43.5t223.5 -43.5t188 -118.5t128.5 -184.5t48 -233.5t-48 -233t-128.5 -184t-187.5 -118t-224 -43t-223.5 43t-187 118t-128 184t-47.5 233zM213 725q0 -87 28 -164.5t80 -138t134.5 -96t183.5 -35.5t184 35.5 t135.5 96t80.5 138t28 164.5t-28 165t-80.5 138.5t-135.5 96.5t-184 36t-183.5 -35.5t-134.5 -96.5t-80 -139t-28 -165zM426 500v450q0 28 17 45t44 17h211q92 0 142.5 -47t50.5 -127q0 -125 -125 -166l111 -137q10 -17 10 -33q0 -30 -17.5 -47t-44.5 -17q-25 0 -43 25 l-145 199h-90v-162q0 -29 -17.5 -45.5t-44.5 -16.5q-28 0 -43.5 16.5t-15.5 45.5zM547 758h127q53 0 74.5 17t21.5 63t-21.5 63t-74.5 17h-127v-160z" />
<glyph unicode="&#xaf;" d="M346 1720q0 40 27.5 61t72.5 21h312q45 0 72.5 -21t27.5 -61t-27.5 -61t-72.5 -21h-312q-45 0 -72.5 21t-27.5 61z" />
<glyph unicode="&#xb0;" d="M246 1135q0 138 89 228.5t230 90.5q143 0 233.5 -90.5t90.5 -228.5q0 -136 -90.5 -226t-233.5 -90q-141 0 -230 90t-89 226zM395 1135q0 -81 46 -133t124 -52q80 0 127 52t47 133q0 83 -47 135.5t-127 52.5q-78 0 -124 -52.5t-46 -135.5z" />
<glyph unicode="&#xb1;" d="M119 86q0 47 26.5 66.5t77.5 19.5h826q51 0 77.5 -19.5t26.5 -66.5t-26.5 -66.5t-77.5 -19.5h-826q-51 0 -77.5 19.5t-26.5 66.5zM119 803q0 47 26.5 66.5t77.5 19.5h326v325q0 105 86 105t86 -105v-325h328q51 0 77.5 -19.5t26.5 -66.5t-26.5 -66.5t-77.5 -19.5h-328 v-328q0 -51 -19.5 -77.5t-66.5 -26.5t-66.5 26.5t-19.5 77.5v328h-326q-51 0 -77.5 19.5t-26.5 66.5z" />
<glyph unicode="&#xb2;" d="M391 811v29q0 101 60 163.5t165 104.5q77 32 108.5 59.5t31.5 67.5q0 46 -27 71t-76 25q-48 0 -78 -27t-38 -73q-11 -66 -66 -66q-30 0 -47.5 16.5t-17.5 41.5q0 97 69 159t172 62q119 0 179.5 -54t60.5 -145q0 -82 -46.5 -134.5t-138.5 -94.5q-52 -24 -81 -40 t-56.5 -43.5t-34.5 -58.5h326q59 0 59 -59t-59 -59h-412q-23 0 -38 16t-15 39z" />
<glyph unicode="&#xb3;" d="M379 958q0 30 18.5 48t46.5 18q26 0 44 -16.5t22 -49.5q7 -52 34 -73t81 -21q52 0 80 28.5t28 74.5q0 47 -23 70.5t-75 23.5h-19q-29 0 -44 16t-15 43q0 26 15.5 43t43.5 17h21q78 0 78 71q0 33 -26 53.5t-71 20.5q-37 0 -60.5 -18t-29.5 -50q-6 -26 -22.5 -39.5 t-38.5 -13.5q-25 0 -44.5 17t-19.5 43q0 81 67 130.5t148 49.5q109 0 166.5 -49.5t57.5 -143.5q0 -48 -25 -80t-63 -45q48 -11 79 -51t31 -108q0 -95 -69.5 -158.5t-169.5 -63.5q-109 0 -177.5 60t-68.5 153z" />
<glyph unicode="&#xb4;" d="M389 1722q0 54 55 82l250 127q30 15 56 15q37 0 62.5 -25.5t25.5 -60.5q0 -55 -45 -78l-277 -142q-23 -10 -41 -10q-37 0 -61.5 27.5t-24.5 64.5z" />
<glyph unicode="&#xb6;" d="M176 1073q0 149 105 255t254 106h520q52 0 78 -17.5t26 -64.5t-26 -64.5t-78 -17.5v-1327q0 -43 -25.5 -69t-66.5 -26t-67 26t-26 69v1327h-151v-1327q0 -43 -25.5 -69t-66.5 -26t-66.5 26t-25.5 69v772q-149 0 -254 104.5t-105 253.5z" />
<glyph unicode="&#xb7;" d="M469 614q0 70 47.5 118t118.5 48t118.5 -48t47.5 -118t-47.5 -117.5t-118.5 -47.5t-118.5 47.5t-47.5 117.5z" />
<glyph unicode="&#xb8;" d="M428 -436q0 24 10 51l76 195q26 71 80 71q37 0 59.5 -21.5t22.5 -56.5q0 -24 -10 -51l-76 -194q-27 -72 -80 -72q-36 0 -59 21.5t-23 56.5z" />
<glyph unicode="&#xb9;" d="M414 1247q0 28 24 47l176 117q33 23 64 23q55 0 55 -60v-540q0 -31 -17 -54.5t-48 -23.5q-32 0 -49 23.5t-17 54.5v432l-100 -66q-12 -10 -33 -10q-27 0 -41 16t-14 41z" />
<glyph unicode="&#xba;" d="M246 1030q0 181 103.5 297.5t277.5 116.5q175 0 278 -116.5t103 -297.5q0 -182 -103 -299t-278 -117q-174 0 -277.5 117t-103.5 299zM401 1030q0 -129 63 -203.5t163 -74.5q102 0 164.5 74t62.5 204q0 128 -63 202.5t-164 74.5q-100 0 -163 -74.5t-63 -202.5z" />
<glyph unicode="&#xbb;" d="M137 123q0 38 35 76l322 336l-322 335q-35 38 -35 76q0 33 20.5 53.5t53.5 20.5q37 0 70 -33l378 -387q33 -33 33 -65q0 -33 -33 -66l-378 -387q-33 -33 -70 -33q-33 0 -53.5 20.5t-20.5 53.5zM526 123q0 38 35 76l322 336l-322 335q-35 38 -35 76q0 33 20.5 53.5 t53.5 20.5q37 0 70 -33l379 -387q32 -32 32 -65q0 -34 -32 -66l-379 -387q-33 -33 -70 -33q-33 0 -53.5 20.5t-20.5 53.5z" />
<glyph unicode="&#xbc;" d="M106 1247q0 28 25 47l176 117q33 23 64 23q55 0 55 -60v-540q0 -31 -17 -54.5t-49 -23.5q-31 0 -48 23.5t-17 54.5v432l-100 -66q-13 -10 -33 -10q-27 0 -41.5 16.5t-14.5 40.5zM123 401q0 37 37 62l860 600q24 18 47 18q26 0 44.5 -21t18.5 -46q0 -40 -36 -64l-861 -600 q-24 -18 -47 -18q-28 0 -45.5 21t-17.5 48zM580 195q0 15 10 32l278 412q26 39 70 39q28 0 48 -14.5t20 -40.5v-369h65q29 0 41 -13.5t12 -41.5q0 -64 -53 -64h-65v-57q0 -31 -17 -54.5t-49 -23.5t-49 23.5t-17 54.5v57h-241q-24 0 -38.5 18t-14.5 42zM739 254h135v199z" />
<glyph unicode="&#xbd;" d="M106 1247q0 28 25 47l176 117q33 23 64 23q55 0 55 -60v-540q0 -31 -17 -54.5t-49 -23.5q-31 0 -48 23.5t-17 54.5v432l-100 -66q-13 -10 -33 -10q-27 0 -41.5 16.5t-14.5 40.5zM123 401q0 37 37 62l860 600q24 18 47 18q26 0 44.5 -21t18.5 -46q0 -40 -36 -64l-861 -600 q-24 -18 -47 -18q-28 0 -45.5 21t-17.5 48zM707 55v29q0 101 60 163.5t165 104.5q76 32 107.5 59.5t31.5 67.5q0 46 -26.5 71t-75.5 25q-48 0 -78.5 -27t-38.5 -73q-11 -65 -66 -65q-30 0 -47.5 16t-17.5 41q0 97 69.5 159t172.5 62q119 0 179 -54t60 -145 q0 -82 -46.5 -134.5t-137.5 -94.5q-40 -18 -62 -30t-49 -30t-41.5 -37.5t-19.5 -43.5h325q60 0 60 -60q0 -59 -60 -59h-411q-23 0 -38 16t-15 39z" />
<glyph unicode="&#xbe;" d="M51 958q0 30 19 48t47 18q26 0 43.5 -16.5t21.5 -49.5q7 -52 34 -73t81 -21q52 0 80.5 28.5t28.5 74.5q0 47 -23 70.5t-76 23.5h-18q-29 0 -44.5 16t-15.5 43q0 26 16 43t44 17h20q78 0 78 71q0 33 -25.5 53.5t-70.5 20.5q-37 0 -60.5 -18t-29.5 -50q-6 -26 -23 -39.5 t-39 -13.5q-25 0 -44 16.5t-19 43.5q0 81 67 130.5t148 49.5q109 0 166 -49.5t57 -143.5q0 -48 -25 -80t-63 -45q48 -11 79.5 -51t31.5 -108q0 -95 -70 -158.5t-170 -63.5q-109 0 -177.5 60t-68.5 153zM123 401q0 37 37 62l860 600q24 18 47 18q26 0 44.5 -21t18.5 -46 q0 -40 -36 -64l-861 -600q-24 -18 -47 -18q-28 0 -45.5 21t-17.5 48zM580 195q0 15 10 32l278 412q26 39 70 39q28 0 48 -14.5t20 -40.5v-369h65q29 0 41 -13.5t12 -41.5q0 -64 -53 -64h-65v-57q0 -31 -17 -54.5t-49 -23.5t-49 23.5t-17 54.5v57h-241q-24 0 -38.5 18 t-14.5 42zM739 254h135v199z" />
<glyph unicode="&#xbf;" d="M233 -94q0 33 5 62t19 56.5t24 46t34 44t34.5 36.5t40.5 38t38 34q56 53 85.5 103t29.5 127q0 102 92 102q49 0 70.5 -29t21.5 -73q0 -183 -164 -322q-69 -58 -107 -109.5t-38 -107.5q0 -88 60.5 -134t156.5 -46q102 0 155.5 51.5t61.5 144.5q3 41 28 64.5t64 23.5 q42 0 67 -26.5t25 -67.5q0 -66 -27 -129t-76 -113.5t-127 -81t-171 -30.5q-111 0 -200 35t-145.5 112.5t-56.5 188.5zM469 858q0 70 47.5 118t118.5 48t118.5 -48t47.5 -118t-47.5 -118t-118.5 -48t-118.5 48t-47.5 118z" />
<glyph unicode="&#xc0;" d="M82 98q0 23 8 47l457 1201q11 28 18.5 43t26 30t43.5 15t43.5 -15t26 -30t18.5 -43l457 -1201q8 -24 8 -47q0 -44 -27 -71t-71 -27q-65 0 -91 68l-135 344h-458l-136 -344q-26 -68 -90 -68q-44 0 -71 27t-27 71zM410 1819q0 35 25.5 60.5t62.5 25.5q25 0 55 -15l250 -127 q55 -28 55 -82q0 -37 -24.5 -64.5t-61.5 -27.5q-18 0 -41 10l-276 142q-45 23 -45 78zM473 592h324l-162 467z" />
<glyph unicode="&#xc1;" d="M82 98q0 23 8 47l457 1201q11 28 18.5 43t26 30t43.5 15t43.5 -15t26 -30t18.5 -43l457 -1201q8 -24 8 -47q0 -44 -27 -71t-71 -27q-65 0 -91 68l-135 344h-458l-136 -344q-26 -68 -90 -68q-44 0 -71 27t-27 71zM414 1681q0 54 55 82l250 127q30 15 55 15 q37 0 62.5 -25.5t25.5 -60.5q0 -55 -45 -78l-276 -142q-23 -10 -41 -10q-37 0 -61.5 27.5t-24.5 64.5zM473 592h324l-162 467z" />
<glyph unicode="&#xc2;" d="M82 98q0 23 8 47l457 1201q11 28 18.5 43t26 30t43.5 15t43.5 -15t26 -30t18.5 -43l457 -1201q8 -24 8 -47q0 -44 -27 -71t-71 -27q-65 0 -91 68l-135 344h-458l-136 -344q-26 -68 -90 -68q-44 0 -71 27t-27 71zM319 1681q0 41 39 74l209 164q35 27 68 27q32 0 67 -27 l209 -164q39 -33 39 -74q0 -39 -25 -65.5t-63 -26.5q-28 0 -53 21l-174 137l-174 -137q-28 -21 -53 -21q-38 0 -63.5 26.5t-25.5 65.5zM473 592h324l-162 467z" />
<glyph unicode="&#xc3;" d="M82 98q0 23 8 47l457 1201q11 28 18.5 43t26 30t43.5 15t43.5 -15t26 -30t18.5 -43l457 -1201q8 -24 8 -47q0 -44 -27 -71t-71 -27q-65 0 -91 68l-135 344h-458l-136 -344q-26 -68 -90 -68q-44 0 -71 27t-27 71zM274 1663q0 29 27 59q49 52 91 76.5t106 24.5 q39 0 77.5 -16.5t64.5 -36t61.5 -36t70.5 -16.5q49 0 92 43q29 29 62 29q29 0 49 -21t20 -51t-26 -59q-49 -52 -91 -76t-106 -24q-39 0 -77.5 16.5t-64.5 35.5t-61.5 35.5t-70.5 16.5q-49 0 -92 -43q-29 -29 -62 -29q-29 0 -49.5 21.5t-20.5 50.5zM473 592h324l-162 467z " />
<glyph unicode="&#xc4;" d="M82 98q0 23 8 47l457 1201q11 28 18.5 43t26 30t43.5 15t43.5 -15t26 -30t18.5 -43l457 -1201q8 -24 8 -47q0 -44 -27 -71t-71 -27q-65 0 -91 68l-135 344h-458l-136 -344q-26 -68 -90 -68q-44 0 -71 27t-27 71zM317 1698q0 53 35.5 89t85.5 36q52 0 88.5 -36.5 t36.5 -88.5q0 -49 -37 -85t-88 -36q-50 0 -85.5 36.5t-35.5 84.5zM473 592h324l-162 467zM709 1698q0 53 36 89t84 36q54 0 89.5 -36t35.5 -89q0 -49 -37 -85t-88 -36q-49 0 -84.5 36.5t-35.5 84.5z" />
<glyph unicode="&#xc5;" d="M82 98q0 23 8 47l457 1201q11 28 18.5 43t26 30t43.5 15t43.5 -15t26 -30t18.5 -43l457 -1201q8 -24 8 -47q0 -44 -27 -71t-71 -27q-65 0 -91 68l-135 344h-458l-136 -344q-26 -68 -90 -68q-44 0 -71 27t-27 71zM420 1751q0 89 63 152t152 63t152 -63t63 -152t-63 -152 t-152 -63t-152 63t-63 152zM473 592h324l-162 467zM541 1751q0 -40 26.5 -67t67.5 -27t67.5 27t26.5 67t-26.5 67t-67.5 27t-67.5 -27t-26.5 -67z" />
<glyph unicode="&#xc6;" d="M23 100q0 20 6 41l284 1205q20 88 88 88h682q107 0 107 -91q0 -90 -107 -90h-372v-426h266q102 0 102 -90t-102 -90h-266v-467h403q109 0 109 -90t-109 -90h-489q-47 0 -79 32t-32 79v301h-225l-72 -322q-21 -90 -100 -90q-94 0 -94 100zM330 592h184v661h-33z" />
<glyph unicode="&#xc7;" d="M106 717q0 341 156 539t434 198q140 0 245 -38.5t204 -139.5q37 -37 37 -80q0 -40 -32 -70t-71 -30t-67 32q-129 146 -316 146q-83 0 -149.5 -32t-110.5 -85t-73.5 -125.5t-42.5 -151t-13 -163.5t13 -163.5t42.5 -151t73.5 -125.5t110.5 -85t149.5 -32q188 0 316 145 q29 33 67 33q39 0 71 -30t32 -70q0 -43 -37 -80q-99 -101 -204 -139.5t-245 -38.5q-278 0 -434 198t-156 539zM563 -436q0 24 10 51l76 195q26 71 80 71q37 0 59.5 -21.5t22.5 -56.5q0 -24 -10 -51l-76 -194q-27 -72 -80 -72q-36 0 -59 21.5t-23 56.5z" />
<glyph unicode="&#xc8;" d="M152 111v1212q0 46 31.5 78.5t78.5 32.5h725q107 0 107 -91q0 -90 -107 -90h-639v-426h471q103 0 103 -90t-103 -90h-471v-467h670q108 0 108 -90t-108 -90h-756q-47 0 -78.5 32t-31.5 79zM389 1778q0 35 25.5 60.5t62.5 25.5q25 0 55 -15l250 -127q56 -29 56 -82 q0 -37 -24.5 -64.5t-61.5 -27.5q-15 0 -41 11l-277 141q-45 23 -45 78z" />
<glyph unicode="&#xc9;" d="M152 111v1212q0 46 31.5 78.5t78.5 32.5h725q107 0 107 -91q0 -90 -107 -90h-639v-426h471q103 0 103 -90t-103 -90h-471v-467h670q108 0 108 -90t-108 -90h-756q-47 0 -78.5 32t-31.5 79zM414 1681q0 54 55 82l250 127q30 15 55 15q37 0 62.5 -25.5t25.5 -60.5 q0 -55 -45 -78l-276 -142q-23 -10 -41 -10q-37 0 -61.5 27.5t-24.5 64.5z" />
<glyph unicode="&#xca;" d="M152 111v1212q0 46 31.5 78.5t78.5 32.5h725q107 0 107 -91q0 -90 -107 -90h-639v-426h471q103 0 103 -90t-103 -90h-471v-467h670q108 0 108 -90t-108 -90h-756q-47 0 -78.5 32t-31.5 79zM319 1681q0 41 39 74l209 164q35 27 68 27q32 0 67 -27l209 -164q39 -33 39 -74 q0 -39 -25 -65.5t-63 -26.5q-28 0 -53 21l-174 137l-174 -137q-28 -21 -53 -21q-38 0 -63.5 26.5t-25.5 65.5z" />
<glyph unicode="&#xcb;" d="M152 111v1212q0 46 31.5 78.5t78.5 32.5h725q107 0 107 -91q0 -90 -107 -90h-639v-426h471q103 0 103 -90t-103 -90h-471v-467h670q108 0 108 -90t-108 -90h-756q-47 0 -78.5 32t-31.5 79zM332 1698q0 53 35.5 89t85.5 36q53 0 89 -36.5t36 -88.5q0 -49 -37 -85t-88 -36 q-50 0 -85.5 36.5t-35.5 84.5zM723 1698q0 53 36.5 89t84.5 36q54 0 89.5 -36t35.5 -89q0 -49 -37 -85t-88 -36q-49 0 -85 36.5t-36 84.5z" />
<glyph unicode="&#xcc;" d="M190 90q0 90 111 90h217v1073h-217q-111 0 -111 90q0 91 111 91h631q110 0 110 -91q0 -90 -110 -90h-217v-1073h217q110 0 110 -90t-110 -90h-631q-111 0 -111 90zM397 1819q0 35 25.5 60.5t62.5 25.5q26 0 56 -15l250 -127q55 -28 55 -82q0 -37 -24.5 -64.5t-61.5 -27.5 q-18 0 -41 10l-277 142q-45 23 -45 78z" />
<glyph unicode="&#xcd;" d="M190 90q0 90 111 90h217v1073h-217q-111 0 -111 90q0 91 111 91h631q110 0 110 -91q0 -90 -110 -90h-217v-1073h217q110 0 110 -90t-110 -90h-631q-111 0 -111 90zM397 1681q0 53 56 82l249 127q30 15 56 15q37 0 62.5 -25.5t25.5 -60.5q0 -55 -45 -78l-277 -142 q-23 -10 -41 -10q-37 0 -61.5 27.5t-24.5 64.5z" />
<glyph unicode="&#xce;" d="M190 90q0 90 111 90h217v1073h-217q-111 0 -111 90q0 91 111 91h631q110 0 110 -91q0 -90 -110 -90h-217v-1073h217q110 0 110 -90t-110 -90h-631q-111 0 -111 90zM303 1681q0 41 39 74l209 164q35 27 67 27q33 0 68 -27l209 -164q39 -33 39 -74q0 -39 -25 -65.5 t-63 -26.5q-28 0 -53 21l-175 137l-174 -137q-28 -21 -53 -21q-38 0 -63 26.5t-25 65.5z" />
<glyph unicode="&#xcf;" d="M190 90q0 90 111 90h217v1073h-217q-111 0 -111 90q0 91 111 91h631q110 0 110 -91q0 -90 -110 -90h-217v-1073h217q110 0 110 -90t-110 -90h-631q-111 0 -111 90zM301 1698q0 53 35.5 89t85.5 36q52 0 88.5 -36.5t36.5 -88.5q0 -49 -37 -85t-88 -36q-50 0 -85.5 36.5 t-35.5 84.5zM692 1698q0 53 36.5 89t84.5 36q54 0 89.5 -36t35.5 -89q0 -49 -37 -85t-88 -36q-49 0 -85 36.5t-36 84.5z" />
<glyph unicode="&#xd0;" d="M-2 717q0 90 104 90h70v516q0 47 32 79t79 32h348q173 0 298.5 -93t188 -253.5t62.5 -370.5t-62.5 -370.5t-188 -253.5t-298.5 -93h-346q-49 0 -81 31.5t-32 79.5v516h-70q-104 0 -104 90zM369 180h266q168 0 258 147t90 390t-90 389.5t-258 146.5h-266v-446h69 q105 0 105 -90t-105 -90h-69v-447z" />
<glyph unicode="&#xd1;" d="M137 111v1214q3 48 27.5 78.5t66.5 30.5q55 0 91 -45l614 -973v907q0 47 26.5 79t69.5 32q45 0 73 -32t28 -79v-1214q0 -44 -28.5 -76.5t-70.5 -32.5q-56 0 -92 45l-608 973v-907q0 -47 -27.5 -79t-70.5 -32q-45 0 -72 32t-27 79zM274 1663q0 29 27 59q49 52 91 76.5 t106 24.5q39 0 77.5 -16.5t64.5 -36t61.5 -36t70.5 -16.5q49 0 92 43q29 29 62 29q29 0 49 -21t20 -51t-26 -59q-49 -52 -91 -76t-106 -24q-39 0 -77.5 16.5t-64.5 35.5t-61.5 35.5t-70.5 16.5q-49 0 -92 -43q-29 -29 -62 -29q-29 0 -49.5 21.5t-20.5 50.5z" />
<glyph unicode="&#xd2;" d="M61 717q0 158 36.5 291t107 233t181 156.5t249.5 56.5t249.5 -56.5t180.5 -156.5t106.5 -233t36.5 -291t-36.5 -291t-106.5 -233t-180.5 -156.5t-249.5 -56.5t-249.5 56.5t-181 156.5t-107 233t-36.5 291zM262 717q0 -163 39.5 -286.5t125 -197t208.5 -73.5t208.5 73.5 t125 197t39.5 286.5t-39.5 286.5t-125 197t-208.5 73.5t-208.5 -73.5t-125 -197t-39.5 -286.5zM416 1819q0 35 25.5 60.5t62.5 25.5q25 0 55 -15l250 -127q55 -28 55 -82q0 -37 -24.5 -64.5t-61.5 -27.5q-18 0 -41 10l-276 142q-45 23 -45 78z" />
<glyph unicode="&#xd3;" d="M61 717q0 158 36.5 291t107 233t181 156.5t249.5 56.5t249.5 -56.5t180.5 -156.5t106.5 -233t36.5 -291t-36.5 -291t-106.5 -233t-180.5 -156.5t-249.5 -56.5t-249.5 56.5t-181 156.5t-107 233t-36.5 291zM262 717q0 -163 39.5 -286.5t125 -197t208.5 -73.5t208.5 73.5 t125 197t39.5 286.5t-39.5 286.5t-125 197t-208.5 73.5t-208.5 -73.5t-125 -197t-39.5 -286.5zM414 1681q0 54 55 82l250 127q30 15 55 15q37 0 62.5 -25.5t25.5 -60.5q0 -55 -45 -78l-276 -142q-23 -10 -41 -10q-37 0 -61.5 27.5t-24.5 64.5z" />
<glyph unicode="&#xd4;" d="M61 717q0 158 36.5 291t107 233t181 156.5t249.5 56.5t249.5 -56.5t180.5 -156.5t106.5 -233t36.5 -291t-36.5 -291t-106.5 -233t-180.5 -156.5t-249.5 -56.5t-249.5 56.5t-181 156.5t-107 233t-36.5 291zM262 717q0 -163 39.5 -286.5t125 -197t208.5 -73.5t208.5 73.5 t125 197t39.5 286.5t-39.5 286.5t-125 197t-208.5 73.5t-208.5 -73.5t-125 -197t-39.5 -286.5zM319 1681q0 41 39 74l209 164q35 27 68 27q32 0 67 -27l209 -164q39 -33 39 -74q0 -39 -25 -65.5t-63 -26.5q-28 0 -53 21l-174 137l-174 -137q-28 -21 -53 -21 q-38 0 -63.5 26.5t-25.5 65.5z" />
<glyph unicode="&#xd5;" d="M61 717q0 158 36.5 291t107 233t181 156.5t249.5 56.5t249.5 -56.5t180.5 -156.5t106.5 -233t36.5 -291t-36.5 -291t-106.5 -233t-180.5 -156.5t-249.5 -56.5t-249.5 56.5t-181 156.5t-107 233t-36.5 291zM262 717q0 -163 39.5 -286.5t125 -197t208.5 -73.5t208.5 73.5 t125 197t39.5 286.5t-39.5 286.5t-125 197t-208.5 73.5t-208.5 -73.5t-125 -197t-39.5 -286.5zM274 1663q0 29 27 59q49 52 91 76.5t106 24.5q39 0 77.5 -16.5t64.5 -36t61.5 -36t70.5 -16.5q49 0 92 43q29 29 62 29q29 0 49 -21t20 -51t-26 -59q-49 -52 -91 -76t-106 -24 q-39 0 -77.5 16.5t-64.5 35.5t-61.5 35.5t-70.5 16.5q-49 0 -92 -43q-29 -29 -62 -29q-29 0 -49.5 21.5t-20.5 50.5z" />
<glyph unicode="&#xd6;" d="M61 717q0 158 36.5 291t107 233t181 156.5t249.5 56.5t249.5 -56.5t180.5 -156.5t106.5 -233t36.5 -291t-36.5 -291t-106.5 -233t-180.5 -156.5t-249.5 -56.5t-249.5 56.5t-181 156.5t-107 233t-36.5 291zM262 717q0 -163 39.5 -286.5t125 -197t208.5 -73.5t208.5 73.5 t125 197t39.5 286.5t-39.5 286.5t-125 197t-208.5 73.5t-208.5 -73.5t-125 -197t-39.5 -286.5zM319 1698q0 53 35.5 89t85.5 36q52 0 88.5 -36.5t36.5 -88.5q0 -49 -37 -85t-88 -36q-50 0 -85.5 36.5t-35.5 84.5zM711 1698q0 53 36 89t84 36q54 0 89.5 -36t35.5 -89 q0 -49 -37 -85t-88 -36q-49 0 -84.5 36.5t-35.5 84.5z" />
<glyph unicode="&#xd7;" d="M199 305q0 37 41 78l233 231l-233 232q-41 41 -41 78q0 30 27 58t59 28q36 0 77 -41l232 -232l231 232q41 41 78 41q32 0 59 -28t27 -58q0 -37 -41 -78l-233 -232l233 -231q41 -41 41 -78q0 -30 -27 -58t-59 -28q-37 0 -78 41l-231 232l-232 -232q-41 -41 -77 -41 q-32 0 -59 28t-27 58z" />
<glyph unicode="&#xd8;" d="M61 717q0 158 36.5 291t107 233t181 156.5t249.5 56.5q212 0 356 -131l51 70q30 41 74 41q41 0 65.5 -23t24.5 -63q0 -30 -24 -64l-78 -106q104 -186 104 -461q0 -158 -36.5 -291t-106.5 -233t-180.5 -156.5t-249.5 -56.5q-216 0 -356 131l-52 -70q-30 -41 -73 -41 q-41 0 -66 23t-25 63q0 29 21 57l82 111q-105 188 -105 463zM262 717q0 -169 39 -287l573 739q-94 105 -239 105q-123 0 -208.5 -73.5t-125 -197t-39.5 -286.5zM395 262q91 -102 240 -102q123 0 208.5 73.5t125 197t39.5 286.5q0 159 -41 284z" />
<glyph unicode="&#xd9;" d="M127 522v801q0 47 27.5 79t72.5 32q43 0 70 -32t27 -79v-795q0 -193 83.5 -280.5t241.5 -87.5q157 0 239.5 87.5t82.5 280.5v795q0 47 26.5 79t71.5 32t71.5 -32t26.5 -79v-795q0 -248 -135 -398t-383 -150q-166 0 -285.5 70.5t-178 191.5t-58.5 280zM426 1819 q0 35 25.5 60.5t62.5 25.5q25 0 55 -15l250 -127q55 -28 55 -82q0 -37 -24.5 -64.5t-61.5 -27.5q-17 0 -40 10l-277 142q-45 23 -45 78z" />
<glyph unicode="&#xda;" d="M127 522v801q0 47 27.5 79t72.5 32q43 0 70 -32t27 -79v-795q0 -193 83.5 -280.5t241.5 -87.5q157 0 239.5 87.5t82.5 280.5v795q0 47 26.5 79t71.5 32t71.5 -32t26.5 -79v-795q0 -248 -135 -398t-383 -150q-166 0 -285.5 70.5t-178 191.5t-58.5 280zM424 1681 q0 54 55 82l250 127q30 15 55 15q37 0 62.5 -25.5t25.5 -60.5q0 -55 -45 -78l-276 -142q-23 -10 -41 -10q-37 0 -61.5 27.5t-24.5 64.5z" />
<glyph unicode="&#xdb;" d="M127 522v801q0 47 27.5 79t72.5 32q43 0 70 -32t27 -79v-795q0 -193 83.5 -280.5t241.5 -87.5q157 0 239.5 87.5t82.5 280.5v795q0 47 26.5 79t71.5 32t71.5 -32t26.5 -79v-795q0 -248 -135 -398t-383 -150q-166 0 -285.5 70.5t-178 191.5t-58.5 280zM319 1681 q0 41 39 74l209 164q35 27 68 27q32 0 67 -27l209 -164q39 -33 39 -74q0 -39 -25 -65.5t-63 -26.5q-28 0 -53 21l-174 137l-174 -137q-28 -21 -53 -21q-38 0 -63.5 26.5t-25.5 65.5z" />
<glyph unicode="&#xdc;" d="M127 522v801q0 47 27.5 79t72.5 32q43 0 70 -32t27 -79v-795q0 -193 83.5 -280.5t241.5 -87.5q157 0 239.5 87.5t82.5 280.5v795q0 47 26.5 79t71.5 32t71.5 -32t26.5 -79v-795q0 -248 -135 -398t-383 -150q-166 0 -285.5 70.5t-178 191.5t-58.5 280zM332 1698 q0 53 35.5 89t85.5 36q53 0 89 -36.5t36 -88.5q0 -49 -37 -85t-88 -36q-50 0 -85.5 36.5t-35.5 84.5zM723 1698q0 53 36.5 89t84.5 36q54 0 89.5 -36t35.5 -89q0 -49 -37 -85t-88 -36q-49 0 -85 36.5t-36 84.5z" />
<glyph unicode="&#xdd;" d="M92 1333q0 55 45 86q22 15 60 15q58 0 86 -43l352 -560l352 560q31 45 86 45q34 0 64 -21q41 -28 41 -82q0 -35 -19 -63l-426 -643v-521q0 -45 -27.5 -75.5t-70.5 -30.5t-70.5 30.5t-27.5 75.5v521l-426 643q-19 24 -19 63zM414 1681q0 54 55 82l250 127q30 15 55 15 q37 0 62.5 -25.5t25.5 -60.5q0 -55 -45 -78l-276 -142q-23 -10 -41 -10q-37 0 -61.5 27.5t-24.5 64.5z" />
<glyph unicode="&#xde;" d="M186 111v1212q0 49 25.5 80t73.5 31q45 0 71.5 -31.5t26.5 -79.5v-164h322q235 0 359 -112.5t124 -329.5t-124.5 -330t-358.5 -113h-322v-163q0 -48 -26.5 -79.5t-71.5 -31.5q-48 0 -73.5 31t-25.5 80zM383 455h358q126 0 188 68.5t62 193.5t-62 193.5t-188 68.5h-358 v-524z" />
<glyph unicode="&#xdf;" d="M80 942q0 40 26 61t70 21h123q0 107 29.5 191t81 135.5t118 77.5t144.5 26q189 0 294 -96.5t105 -290.5q0 -154 -129 -279q102 -47 157.5 -140t55.5 -228q0 -206 -125.5 -313t-339.5 -107h-37q-96 0 -96 82q0 40 26 61t70 21h37q142 0 211.5 63t69.5 193q0 126 -69 191 t-202 65h-47q-96 0 -96 82q0 40 26 61t70 21h27q99 0 153 58.5t54 168.5q0 116 -56 169.5t-151 53.5t-146 -55.5t-51 -181.5v-951q0 -44 -25 -73t-67 -29q-41 0 -66.5 29.5t-25.5 72.5v758h-123q-96 0 -96 82z" />
<glyph unicode="&#xe0;" d="M141 512q0 105 32 200t91.5 169.5t152 118.5t204.5 44q85 0 164 -32.5t124 -93.5q3 49 27.5 77.5t64.5 28.5q44 0 71.5 -27t27.5 -75v-820q0 -48 -27.5 -75t-71.5 -27q-40 0 -64.5 28.5t-27.5 77.5q-45 -61 -124 -93.5t-164 -32.5q-116 0 -209 44t-151 119t-89 169.5 t-31 199.5zM326 512q0 -164 81 -266.5t214 -102.5t213.5 102.5t80.5 266.5t-80.5 266.5t-213.5 102.5t-214 -102.5t-81 -266.5zM397 1409q0 35 25.5 60.5t62.5 25.5q28 0 56 -14l250 -127q55 -28 55 -82q0 -37 -24.5 -64.5t-61.5 -27.5q-18 0 -41 10l-277 141q-45 23 -45 78 z" />
<glyph unicode="&#xe1;" d="M141 512q0 105 32 200t91.5 169.5t152 118.5t204.5 44q85 0 164 -32.5t124 -93.5q3 49 27.5 77.5t64.5 28.5q44 0 71.5 -27t27.5 -75v-820q0 -48 -27.5 -75t-71.5 -27q-40 0 -64.5 28.5t-27.5 77.5q-45 -61 -124 -93.5t-164 -32.5q-116 0 -209 44t-151 119t-89 169.5 t-31 199.5zM326 512q0 -164 81 -266.5t214 -102.5t213.5 102.5t80.5 266.5t-80.5 266.5t-213.5 102.5t-214 -102.5t-81 -266.5zM397 1272q0 53 56 82l249 127q28 14 56 14q37 0 62.5 -25.5t25.5 -60.5q0 -55 -45 -78l-277 -141q-23 -10 -41 -10q-37 0 -61.5 27.5t-24.5 64.5 z" />
<glyph unicode="&#xe2;" d="M141 512q0 105 32 200t91.5 169.5t152 118.5t204.5 44q85 0 164 -32.5t124 -93.5q3 49 27.5 77.5t64.5 28.5q44 0 71.5 -27t27.5 -75v-820q0 -48 -27.5 -75t-71.5 -27q-40 0 -64.5 28.5t-27.5 77.5q-45 -61 -124 -93.5t-164 -32.5q-116 0 -209 44t-151 119t-89 169.5 t-31 199.5zM305 1272q0 41 39 74l209 163q35 27 68 27q32 0 67 -27l209 -163q39 -33 39 -74q0 -39 -25 -65.5t-63 -26.5q-30 0 -53 20l-174 137l-175 -137q-27 -20 -53 -20q-38 0 -63 26.5t-25 65.5zM326 512q0 -164 81 -266.5t214 -102.5t213.5 102.5t80.5 266.5 t-80.5 266.5t-213.5 102.5t-214 -102.5t-81 -266.5z" />
<glyph unicode="&#xe3;" d="M141 512q0 105 32 200t91.5 169.5t152 118.5t204.5 44q85 0 164 -32.5t124 -93.5q3 49 27.5 77.5t64.5 28.5q44 0 71.5 -27t27.5 -75v-820q0 -48 -27.5 -75t-71.5 -27q-40 0 -64.5 28.5t-27.5 77.5q-45 -61 -124 -93.5t-164 -32.5q-116 0 -209 44t-151 119t-89 169.5 t-31 199.5zM274 1315q0 29 27 59q49 52 91 76.5t106 24.5q39 0 77.5 -16.5t64.5 -36t61.5 -36t70.5 -16.5q49 0 92 43q29 29 62 29q29 0 49 -21t20 -51t-26 -59q-49 -52 -91 -76.5t-106 -24.5q-39 0 -77.5 16.5t-64.5 36t-61.5 36t-70.5 16.5q-49 0 -92 -43q-29 -29 -62 -29 q-29 0 -49.5 21.5t-20.5 50.5zM326 512q0 -164 81 -266.5t214 -102.5t213.5 102.5t80.5 266.5t-80.5 266.5t-213.5 102.5t-214 -102.5t-81 -266.5z" />
<glyph unicode="&#xe4;" d="M141 512q0 105 32 200t91.5 169.5t152 118.5t204.5 44q85 0 164 -32.5t124 -93.5q3 49 27.5 77.5t64.5 28.5q44 0 71.5 -27t27.5 -75v-820q0 -48 -27.5 -75t-71.5 -27q-40 0 -64.5 28.5t-27.5 77.5q-45 -61 -124 -93.5t-164 -32.5q-116 0 -209 44t-151 119t-89 169.5 t-31 199.5zM315 1329q0 53 35.5 89t85.5 36q52 0 88.5 -36t36.5 -89q0 -49 -37 -85t-88 -36q-50 0 -85.5 36.5t-35.5 84.5zM326 512q0 -164 81 -266.5t214 -102.5t213.5 102.5t80.5 266.5t-80.5 266.5t-213.5 102.5t-214 -102.5t-81 -266.5zM707 1329q0 53 36 89t84 36 q54 0 89.5 -36t35.5 -89q0 -49 -37 -85t-88 -36q-49 0 -84.5 36.5t-35.5 84.5z" />
<glyph unicode="&#xe5;" d="M141 512q0 105 32 200t91.5 169.5t152 118.5t204.5 44q85 0 164 -32.5t124 -93.5q3 49 27.5 77.5t64.5 28.5q44 0 71.5 -27t27.5 -75v-820q0 -48 -27.5 -75t-71.5 -27q-40 0 -64.5 28.5t-27.5 77.5q-45 -61 -124 -93.5t-164 -32.5q-116 0 -209 44t-151 119t-89 169.5 t-31 199.5zM326 512q0 -164 81 -266.5t214 -102.5t213.5 102.5t80.5 266.5t-80.5 266.5t-213.5 102.5t-214 -102.5t-81 -266.5zM406 1403q0 89 63 152t152 63t152 -63t63 -152t-63 -152t-152 -63t-152 63t-63 152zM526 1403q0 -40 27 -67t68 -27t67.5 27t26.5 67t-26.5 67 t-67.5 27t-68 -27t-27 -67z" />
<glyph unicode="&#xe6;" d="M72 272q0 162 121 246t315 84v62q0 217 -131 217q-55 0 -84.5 -26.5t-54.5 -88.5q-17 -45 -68 -45q-35 0 -60.5 22t-25.5 58q0 18 4 30q35 102 112.5 157.5t176.5 55.5q153 0 235 -112q86 112 240 112q180 0 265 -127.5t85 -359.5q0 -119 -102 -119h-404v-84 q0 -108 37.5 -159.5t118.5 -51.5q57 0 98 28.5t78 92.5q29 51 78 51q36 0 57 -22t21 -62q0 -45 -25 -84q-37 -55 -75 -89.5t-97 -56t-135 -21.5q-81 0 -147.5 31.5t-102.5 82.5q-82 -114 -227 -114q-135 0 -219 72.5t-84 219.5zM256 272q0 -67 35.5 -98t83.5 -31 q133 0 133 185v110q-125 0 -188.5 -38.5t-63.5 -127.5zM696 602h318q-8 137 -45.5 208t-116.5 71q-43 0 -72 -18.5t-45.5 -57.5t-25 -85.5t-13.5 -117.5z" />
<glyph unicode="&#xe7;" d="M141 512q0 150 59.5 269.5t176.5 191t272 71.5q139 0 224.5 -40t154.5 -113q41 -41 41 -86q0 -40 -23.5 -67t-64.5 -27q-43 0 -76 45q-54 73 -107.5 99t-148.5 26q-146 0 -234.5 -106t-88.5 -263t88.5 -263t234.5 -106q95 0 148.5 26t107.5 99q33 45 76 45q41 0 64.5 -27 t23.5 -67q0 -45 -41 -86q-69 -73 -154.5 -113t-224.5 -40q-155 0 -272 71.5t-176.5 191t-59.5 269.5zM510 -436q0 24 10 51l76 195q26 71 80 71q37 0 59.5 -21.5t22.5 -56.5q0 -24 -10 -51l-76 -194q-27 -72 -80 -72q-36 0 -59 21.5t-23 56.5z" />
<glyph unicode="&#xe8;" d="M141 512q0 150 59.5 269.5t176.5 191t272 71.5q218 0 356 -144t138 -359q0 -49 -27.5 -76t-75.5 -27h-708q16 -122 101 -208.5t216 -86.5q198 0 307 125q30 35 72 35t66 -29.5t24 -66.5t-33 -70q-162 -157 -436 -157q-155 0 -272 71.5t-176.5 191t-59.5 269.5zM332 602 h620q-31 124 -106 201.5t-197 77.5q-125 0 -210.5 -81t-106.5 -198zM424 1409q0 35 25.5 60.5t62.5 25.5q27 0 55 -14l250 -127q55 -28 55 -82q0 -37 -24.5 -64.5t-61.5 -27.5q-18 0 -41 10l-276 141q-45 23 -45 78z" />
<glyph unicode="&#xe9;" d="M141 512q0 150 59.5 269.5t176.5 191t272 71.5q218 0 356 -144t138 -359q0 -49 -27.5 -76t-75.5 -27h-708q16 -122 101 -208.5t216 -86.5q198 0 307 125q30 35 72 35t66 -29.5t24 -66.5t-33 -70q-162 -157 -436 -157q-155 0 -272 71.5t-176.5 191t-59.5 269.5zM332 602 h620q-31 124 -106 201.5t-197 77.5q-125 0 -210.5 -81t-106.5 -198zM428 1272q0 54 55 82l250 127q28 14 55 14q38 0 63.5 -25.5t25.5 -60.5q0 -54 -46 -78l-276 -141q-23 -10 -41 -10q-37 0 -61.5 27.5t-24.5 64.5z" />
<glyph unicode="&#xea;" d="M141 512q0 150 59.5 269.5t176.5 191t272 71.5q218 0 356 -144t138 -359q0 -49 -27.5 -76t-75.5 -27h-708q16 -122 101 -208.5t216 -86.5q198 0 307 125q30 35 72 35t66 -29.5t24 -66.5t-33 -70q-162 -157 -436 -157q-155 0 -272 71.5t-176.5 191t-59.5 269.5zM332 602 h620q-31 124 -106 201.5t-197 77.5q-125 0 -210.5 -81t-106.5 -198zM336 1272q0 41 39 74l209 163q35 27 67 27q33 0 68 -27l209 -163q39 -33 39 -74q0 -39 -25 -65.5t-63 -26.5q-31 0 -54 20l-174 137l-174 -137q-27 -20 -53 -20q-38 0 -63 26.5t-25 65.5z" />
<glyph unicode="&#xeb;" d="M141 512q0 150 59.5 269.5t176.5 191t272 71.5q218 0 356 -144t138 -359q0 -49 -27.5 -76t-75.5 -27h-708q16 -122 101 -208.5t216 -86.5q198 0 307 125q30 35 72 35t66 -29.5t24 -66.5t-33 -70q-162 -157 -436 -157q-155 0 -272 71.5t-176.5 191t-59.5 269.5zM332 602 h620q-31 124 -106 201.5t-197 77.5q-125 0 -210.5 -81t-106.5 -198zM336 1329q0 53 35.5 89t85.5 36q53 0 89 -36t36 -89q0 -49 -37 -85t-88 -36q-50 0 -85.5 36.5t-35.5 84.5zM727 1329q0 53 36.5 89t84.5 36q54 0 89.5 -36t35.5 -89q0 -49 -37 -85t-88 -36q-49 0 -85 36.5 t-36 84.5z" />
<glyph unicode="&#xec;" d="M207 82q0 40 28 61t72 21h297v696h-229q-44 0 -72.5 21.5t-28.5 60.5t28.5 60.5t72.5 21.5h321q39 0 65.5 -23.5t26.5 -58.5v-778h297q44 0 72.5 -21.5t28.5 -60.5t-28.5 -60.5t-72.5 -21.5h-778q-44 0 -72 21t-28 61zM328 1409q0 35 25.5 60.5t62.5 25.5q27 0 55 -14 l250 -127q55 -28 55 -82q0 -37 -24.5 -64.5t-61.5 -27.5q-18 0 -41 10l-276 141q-45 23 -45 78z" />
<glyph unicode="&#xed;" d="M207 82q0 40 28 61t72 21h297v696h-229q-44 0 -72.5 21.5t-28.5 60.5t28.5 60.5t72.5 21.5h321q39 0 65.5 -23.5t26.5 -58.5v-778h297q44 0 72.5 -21.5t28.5 -60.5t-28.5 -60.5t-72.5 -21.5h-778q-44 0 -72 21t-28 61zM315 1272q0 53 56 82l250 127q28 14 55 14 q37 0 62.5 -25.5t25.5 -60.5q0 -55 -45 -78l-277 -141q-23 -10 -41 -10q-37 0 -61.5 27.5t-24.5 64.5z" />
<glyph unicode="&#xee;" d="M207 82q0 40 28 61t72 21h297v696h-229q-44 0 -72.5 21.5t-28.5 60.5t28.5 60.5t72.5 21.5h321q39 0 65.5 -23.5t26.5 -58.5v-778h297q44 0 72.5 -21.5t28.5 -60.5t-28.5 -60.5t-72.5 -21.5h-778q-44 0 -72 21t-28 61zM293 1272q0 41 39 74l209 163q35 27 67 27 q33 0 68 -27l209 -163q39 -33 39 -74q0 -39 -25 -65.5t-63 -26.5q-31 0 -54 20l-174 137l-174 -137q-27 -20 -53 -20q-38 0 -63 26.5t-25 65.5z" />
<glyph unicode="&#xef;" d="M207 82q0 40 28 61t72 21h297v696h-229q-44 0 -72.5 21.5t-28.5 60.5t28.5 60.5t72.5 21.5h321q39 0 65.5 -23.5t26.5 -58.5v-778h297q44 0 72.5 -21.5t28.5 -60.5t-28.5 -60.5t-72.5 -21.5h-778q-44 0 -72 21t-28 61zM279 1329q0 53 35 89t85 36q53 0 89 -36t36 -89 q0 -49 -37 -85t-88 -36q-50 0 -85 36.5t-35 84.5zM670 1329q0 53 36.5 89t84.5 36q54 0 89 -36t35 -89q0 -50 -36.5 -85.5t-87.5 -35.5q-49 0 -85 36.5t-36 84.5z" />
<glyph unicode="&#xf0;" d="M143 512q0 230 136 381t354 151q126 0 231 -57q-44 99 -116 174l-293 -57q-10 -2 -29 -2q-37 0 -61.5 23.5t-24.5 58.5q0 31 23 52.5t61 29.5l137 26q-10 6 -31.5 15.5t-29.5 13.5q-60 23 -60 78q0 38 27 66t72 28q27 0 55 -14q126 -65 211 -138l141 29q10 2 29 2 q38 0 62 -22t24 -60q0 -31 -23 -52.5t-61 -29.5l-39 -8q181 -242 184 -665v-23q0 -151 -59.5 -271.5t-171.5 -190.5t-258 -70q-218 0 -354 151t-136 381zM328 512q0 -170 84 -269.5t221 -99.5t221 99.5t84 269.5t-84 269.5t-221 99.5t-221 -99.5t-84 -269.5z" />
<glyph unicode="&#xf1;" d="M219 100v824q0 42 26 71t66 29t66 -29t26 -71v-41q23 65 108 113t181 48q187 0 287 -93t100 -302v-549q0 -43 -25 -71.5t-67 -28.5q-40 0 -66 29t-26 71v508q0 145 -45.5 209t-157.5 64q-134 0 -211.5 -109.5t-77.5 -286.5v-385q0 -42 -26 -71t-66 -29t-66 29t-26 71z M274 1315q0 29 27 59q49 52 91 76.5t106 24.5q39 0 77.5 -16.5t64.5 -36t61.5 -36t70.5 -16.5q49 0 92 43q29 29 62 29q29 0 49 -21t20 -51t-26 -59q-49 -52 -91 -76.5t-106 -24.5q-39 0 -77.5 16.5t-64.5 36t-61.5 36t-70.5 16.5q-49 0 -92 -43q-29 -29 -62 -29 q-29 0 -49.5 21.5t-20.5 50.5z" />
<glyph unicode="&#xf2;" d="M143 512q0 230 136 381t354 151t353.5 -151t135.5 -381q0 -151 -59.5 -271.5t-171.5 -190.5t-258 -70q-218 0 -354 151t-136 381zM328 512q0 -170 84 -269.5t221 -99.5t221 99.5t84 269.5t-84 269.5t-221 99.5t-221 -99.5t-84 -269.5zM410 1409q0 35 25.5 60.5t62.5 25.5 q27 0 55 -14l250 -127q55 -28 55 -82q0 -37 -24.5 -64.5t-61.5 -27.5q-18 0 -41 10l-276 141q-45 23 -45 78z" />
<glyph unicode="&#xf3;" d="M143 512q0 230 136 381t354 151t353.5 -151t135.5 -381q0 -151 -59.5 -271.5t-171.5 -190.5t-258 -70q-218 0 -354 151t-136 381zM328 512q0 -170 84 -269.5t221 -99.5t221 99.5t84 269.5t-84 269.5t-221 99.5t-221 -99.5t-84 -269.5zM410 1272q0 54 55 82l250 127 q28 14 55 14q37 0 62.5 -25.5t25.5 -60.5q0 -55 -45 -78l-276 -141q-23 -10 -41 -10q-37 0 -61.5 27.5t-24.5 64.5z" />
<glyph unicode="&#xf4;" d="M143 512q0 230 136 381t354 151t353.5 -151t135.5 -381q0 -151 -59.5 -271.5t-171.5 -190.5t-258 -70q-218 0 -354 151t-136 381zM317 1272q0 41 39 74l209 163q35 27 68 27q32 0 67 -27l209 -163q39 -33 39 -74q0 -39 -25 -65.5t-63 -26.5q-30 0 -53 20l-174 137 l-174 -137q-27 -20 -53 -20q-38 0 -63.5 26.5t-25.5 65.5zM328 512q0 -170 84 -269.5t221 -99.5t221 99.5t84 269.5t-84 269.5t-221 99.5t-221 -99.5t-84 -269.5z" />
<glyph unicode="&#xf5;" d="M143 512q0 230 136 381t354 151t353.5 -151t135.5 -381q0 -151 -59.5 -271.5t-171.5 -190.5t-258 -70q-218 0 -354 151t-136 381zM274 1315q0 29 27 59q49 52 91 76.5t106 24.5q39 0 77.5 -16.5t64.5 -36t61.5 -36t70.5 -16.5q49 0 92 43q29 29 62 29q29 0 49 -21t20 -51 t-26 -59q-49 -52 -91 -76.5t-106 -24.5q-39 0 -77.5 16.5t-64.5 36t-61.5 36t-70.5 16.5q-49 0 -92 -43q-29 -29 -62 -29q-29 0 -49.5 21.5t-20.5 50.5zM328 512q0 -170 84 -269.5t221 -99.5t221 99.5t84 269.5t-84 269.5t-221 99.5t-221 -99.5t-84 -269.5z" />
<glyph unicode="&#xf6;" d="M143 512q0 230 136 381t354 151t353.5 -151t135.5 -381q0 -151 -59.5 -271.5t-171.5 -190.5t-258 -70q-218 0 -354 151t-136 381zM315 1329q0 53 35.5 89t85.5 36q52 0 88.5 -36t36.5 -89q0 -49 -37 -85t-88 -36q-50 0 -85.5 36.5t-35.5 84.5zM328 512q0 -170 84 -269.5 t221 -99.5t221 99.5t84 269.5t-84 269.5t-221 99.5t-221 -99.5t-84 -269.5zM707 1329q0 53 36 89t84 36q54 0 89.5 -36t35.5 -89q0 -49 -37 -85t-88 -36q-49 0 -84.5 36.5t-35.5 84.5z" />
<glyph unicode="&#xf7;" d="M119 616q0 47 26.5 66.5t77.5 19.5h826q51 0 77.5 -19.5t26.5 -66.5t-26.5 -66.5t-77.5 -19.5h-826q-51 0 -77.5 19.5t-26.5 66.5zM469 238q0 70 47.5 117.5t118.5 47.5t118.5 -47.5t47.5 -117.5t-47.5 -118t-118.5 -48t-118.5 48t-47.5 118zM469 991q0 71 47.5 118.5 t118.5 47.5t118.5 -47.5t47.5 -118.5t-47.5 -118.5t-118.5 -47.5t-118.5 47.5t-47.5 118.5z" />
<glyph unicode="&#xf8;" d="M143 512q0 230 136 381t354 151q130 0 235 -57l6 8q25 35 62 35q40 0 69 -27t29 -65q0 -25 -20 -51l-10 -15q118 -143 118 -360q0 -151 -59.5 -271.5t-171.5 -190.5t-258 -70q-149 0 -264 73l-19 -22q-25 -35 -61 -35q-41 0 -70 27.5t-29 62.5q0 24 21 51l31 39 q-99 141 -99 336zM328 512q0 -106 30 -182l406 522q-63 29 -131 29q-137 0 -221 -99.5t-84 -269.5zM473 188q65 -45 160 -45q137 0 221 99.5t84 269.5q0 125 -49 215z" />
<glyph unicode="&#xf9;" d="M219 375v549q0 43 25 71.5t67 28.5q40 0 66 -29t26 -71v-508q0 -145 45.5 -209t157.5 -64q134 0 211.5 109.5t77.5 286.5v385q0 42 26 71t66 29t66 -29t26 -71v-824q0 -42 -26 -71t-66 -29t-66 29t-26 71v41q-23 -65 -108 -113t-181 -48q-187 0 -287 93t-100 302z M410 1409q0 35 25.5 60.5t62.5 25.5q27 0 55 -14l250 -127q55 -28 55 -82q0 -37 -24.5 -64.5t-61.5 -27.5q-18 0 -41 10l-276 141q-45 23 -45 78z" />
<glyph unicode="&#xfa;" d="M219 375v549q0 43 25 71.5t67 28.5q40 0 66 -29t26 -71v-508q0 -145 45.5 -209t157.5 -64q134 0 211.5 109.5t77.5 286.5v385q0 42 26 71t66 29t66 -29t26 -71v-824q0 -42 -26 -71t-66 -29t-66 29t-26 71v41q-23 -65 -108 -113t-181 -48q-187 0 -287 93t-100 302z M430 1272q0 54 55 82l250 127q28 14 56 14q37 0 62.5 -25.5t25.5 -60.5q0 -55 -45 -78l-277 -141q-23 -10 -41 -10q-37 0 -61.5 27.5t-24.5 64.5z" />
<glyph unicode="&#xfb;" d="M219 375v549q0 43 25 71.5t67 28.5q40 0 66 -29t26 -71v-508q0 -145 45.5 -209t157.5 -64q134 0 211.5 109.5t77.5 286.5v385q0 42 26 71t66 29t66 -29t26 -71v-824q0 -42 -26 -71t-66 -29t-66 29t-26 71v41q-23 -65 -108 -113t-181 -48q-187 0 -287 93t-100 302z M334 1272q0 41 39 74l209 163q35 27 67 27q33 0 68 -27l209 -163q39 -33 39 -74q0 -39 -25 -65.5t-63 -26.5q-31 0 -54 20l-174 137l-174 -137q-27 -20 -53 -20q-38 0 -63 26.5t-25 65.5z" />
<glyph unicode="&#xfc;" d="M219 375v549q0 43 25 71.5t67 28.5q40 0 66 -29t26 -71v-508q0 -145 45.5 -209t157.5 -64q134 0 211.5 109.5t77.5 286.5v385q0 42 26 71t66 29t66 -29t26 -71v-824q0 -42 -26 -71t-66 -29t-66 29t-26 71v41q-23 -65 -108 -113t-181 -48q-187 0 -287 93t-100 302z M326 1329q0 53 35 89t85 36q52 0 88.5 -36t36.5 -89q0 -49 -37 -85t-88 -36q-50 0 -85 36.5t-35 84.5zM717 1329q0 53 36.5 89t84.5 36q54 0 89.5 -36t35.5 -89q0 -49 -37 -85t-88 -36q-49 0 -85 36.5t-36 84.5z" />
<glyph unicode="&#xfd;" d="M92 -326q0 36 22.5 58t55.5 22q18 0 45 -10t51 -10q89 0 142 59.5t118 214.5l11 25l-379 854q-8 16 -8 37q0 30 16 55t43 37q16 8 39 8q28 0 53 -16t37 -43l303 -691l301 691q12 27 37 43t53 16q23 0 39 -8q27 -12 43 -37t16 -55q0 -13 -8 -37l-389 -856 q-43 -96 -77 -160t-77.5 -126t-87.5 -97t-100.5 -56.5t-124.5 -21.5q-174 0 -174 104zM440 1272q0 53 56 82l249 127q28 14 56 14q37 0 62.5 -25.5t25.5 -60.5q0 -55 -45 -78l-277 -141q-23 -10 -41 -10q-37 0 -61.5 27.5t-24.5 64.5z" />
<glyph unicode="&#xfe;" d="M162 -309v1642q0 42 26 71.5t66 29.5t66 -29.5t26 -71.5v-418q35 57 116 93t171 36q150 0 259 -71.5t162.5 -190.5t53.5 -270t-53.5 -270t-162.5 -190.5t-259 -71.5q-90 0 -171 36t-116 93v-418q0 -42 -26 -71.5t-66 -29.5t-66 29.5t-26 71.5zM346 512q0 -172 75 -270.5 t214 -98.5t214 98.5t75 270.5t-75 270.5t-214 98.5t-214 -98.5t-75 -270.5z" />
<glyph unicode="&#xff;" d="M92 -326q0 36 22.5 58t55.5 22q18 0 45 -10t51 -10q89 0 142 59.5t118 214.5l11 25l-379 854q-8 16 -8 37q0 30 16 55t43 37q16 8 39 8q28 0 53 -16t37 -43l303 -691l301 691q12 27 37 43t53 16q23 0 39 -8q27 -12 43 -37t16 -55q0 -13 -8 -37l-389 -856 q-43 -96 -77 -160t-77.5 -126t-87.5 -97t-100.5 -56.5t-124.5 -21.5q-174 0 -174 104zM324 1329q0 53 35 89t85 36q52 0 88.5 -36t36.5 -89q0 -49 -37 -85t-88 -36q-50 0 -85 36.5t-35 84.5zM715 1329q0 53 36.5 89t84.5 36q54 0 89.5 -36t35.5 -89q0 -49 -37 -85t-88 -36 q-49 0 -85 36.5t-36 84.5z" />
<glyph unicode="&#x152;" d="M61 717q0 211 63 370.5t194 253t317 93.5h473q106 0 106 -91q0 -90 -106 -90h-332v-426h225q103 0 103 -90t-103 -90h-225v-467h342q109 0 109 -90t-109 -90h-483q-186 0 -317 93.5t-194 253t-63 370.5zM262 717q0 -230 80 -373t238 -164v1073q-158 -23 -238 -165 t-80 -371z" />
<glyph unicode="&#x153;" d="M143 512q0 150 59.5 269.5t176.5 191t272 71.5q148 0 261.5 -67t173 -180.5t59.5 -255.5q0 -44 -28.5 -73.5t-74.5 -29.5h-299v-286q68 9 118.5 35.5t96.5 80.5q30 35 72 35t66 -29t24 -67q0 -40 -33 -70q-162 -157 -436 -157q-155 0 -272 71.5t-176.5 191t-59.5 269.5z M328 512q0 -133 58 -232t173 -128v720q-114 -32 -172.5 -133.5t-58.5 -226.5zM743 602h213q-57 223 -213 270v-270z" />
<glyph unicode="&#x178;" d="M92 1333q0 55 45 86q22 15 60 15q58 0 86 -43l352 -560l352 560q31 45 86 45q34 0 64 -21q41 -28 41 -82q0 -35 -19 -63l-426 -643v-521q0 -45 -27.5 -75.5t-70.5 -30.5t-70.5 30.5t-27.5 75.5v521l-426 643q-19 24 -19 63zM317 1698q0 53 35.5 89t85.5 36 q52 0 88.5 -36.5t36.5 -88.5q0 -49 -37 -85t-88 -36q-50 0 -85.5 36.5t-35.5 84.5zM709 1698q0 53 36 89t84 36q54 0 89.5 -36t35.5 -89q0 -49 -37 -85t-88 -36q-49 0 -84.5 36.5t-35.5 84.5z" />
<glyph unicode="&#x2c6;" d="M299 1640q0 41 39 74l209 164q35 27 67 27q33 0 68 -27l209 -164q39 -33 39 -74q0 -39 -25 -65.5t-63 -26.5q-29 0 -54 21l-174 137l-174 -137q-28 -21 -53 -21q-38 0 -63 26.5t-25 65.5z" />
<glyph unicode="&#x2dc;" d="M272 1704q0 29 27 59q49 52 91 76.5t106 24.5q39 0 77.5 -16.5t64.5 -36t61.5 -36t70.5 -16.5q49 0 92 43q29 29 62 29q29 0 49 -21t20 -51t-26 -59q-49 -52 -91 -76.5t-106 -24.5q-39 0 -77.5 16.5t-64.5 36t-61.5 36t-70.5 16.5q-50 0 -93 -43q-29 -29 -61 -29 q-29 0 -49.5 21.5t-20.5 50.5z" />
<glyph unicode="&#x2000;" horiz-adv-x="983" />
<glyph unicode="&#x2001;" horiz-adv-x="1966" />
<glyph unicode="&#x2002;" horiz-adv-x="983" />
<glyph unicode="&#x2003;" horiz-adv-x="1966" />
<glyph unicode="&#x2004;" horiz-adv-x="655" />
<glyph unicode="&#x2005;" horiz-adv-x="491" />
<glyph unicode="&#x2006;" horiz-adv-x="327" />
<glyph unicode="&#x2007;" horiz-adv-x="327" />
<glyph unicode="&#x2008;" horiz-adv-x="245" />
<glyph unicode="&#x2009;" horiz-adv-x="393" />
<glyph unicode="&#x200a;" horiz-adv-x="109" />
<glyph unicode="&#x2010;" d="M213 616q0 47 26.5 66.5t77.5 19.5h639q105 0 105 -86t-105 -86h-639q-51 0 -77.5 19.5t-26.5 66.5z" />
<glyph unicode="&#x2011;" d="M213 616q0 47 26.5 66.5t77.5 19.5h639q105 0 105 -86t-105 -86h-639q-51 0 -77.5 19.5t-26.5 66.5z" />
<glyph unicode="&#x2012;" d="M213 616q0 47 26.5 66.5t77.5 19.5h639q105 0 105 -86t-105 -86h-639q-51 0 -77.5 19.5t-26.5 66.5z" />
<glyph unicode="&#x2013;" d="M119 616q0 47 26.5 66.5t77.5 19.5h826q51 0 77.5 -19.5t26.5 -66.5t-26.5 -66.5t-77.5 -19.5h-826q-51 0 -77.5 19.5t-26.5 66.5z" />
<glyph unicode="&#x2014;" d="M41 616q0 47 26.5 66.5t77.5 19.5h979q105 0 105 -86t-105 -86h-979q-51 0 -77.5 19.5t-26.5 66.5z" />
<glyph unicode="&#x2018;" d="M401 870v15q0 152 75 270.5t202 169.5q15 6 31 6q27 0 44 -15.5t17 -39.5q0 -42 -51 -59q-111 -39 -111 -140q0 -44 41 -61q39 -21 62.5 -59.5t23.5 -86.5q0 -71 -48 -119.5t-118 -48.5q-71 0 -119.5 49t-48.5 119z" />
<glyph unicode="&#x2019;" d="M442 780q0 42 52 60q110 38 110 139q0 44 -41 61q-39 21 -62.5 59.5t-23.5 86.5q0 71 48 119.5t118 48.5q71 0 119.5 -49t48.5 -119v-15q0 -152 -75 -270.5t-201 -169.5q-15 -6 -31 -6q-27 0 -44.5 15.5t-17.5 39.5z" />
<glyph unicode="&#x201a;" d="M442 -264q0 41 52 59q110 38 110 139q0 45 -41 62q-39 21 -62.5 59t-23.5 86q0 71 48 119.5t118 48.5q71 0 119.5 -48.5t48.5 -119.5v-14q0 -152 -75 -270.5t-201 -169.5q-15 -6 -31 -6q-27 0 -44.5 15.5t-17.5 39.5z" />
<glyph unicode="&#x201c;" d="M217 870v15q0 152 75 270.5t202 169.5q15 6 30 6q27 0 44.5 -15.5t17.5 -39.5q0 -42 -51 -59q-111 -39 -111 -140q0 -44 41 -61q39 -21 62.5 -59.5t23.5 -86.5q0 -71 -48 -119.5t-118 -48.5q-71 0 -119.5 49t-48.5 119zM627 870v15q0 152 75 270.5t201 169.5q15 6 31 6 q27 0 44 -15.5t17 -39.5q0 -42 -51 -59q-110 -38 -110 -140q0 -44 40 -61q39 -21 63 -59.5t24 -86.5q0 -71 -48 -119.5t-118 -48.5q-71 0 -119.5 49t-48.5 119z" />
<glyph unicode="&#x201d;" d="M238 780q0 43 51 60q110 38 110 139q0 44 -41 61q-39 21 -62.5 59.5t-23.5 86.5q0 71 48 119.5t118 48.5t119 -49t49 -119v-15q0 -152 -75 -270.5t-201 -169.5q-15 -6 -31 -6q-27 0 -44 15.5t-17 39.5zM647 780q0 43 51 60q111 39 111 139q0 44 -41 61q-39 21 -62.5 59.5 t-23.5 86.5q0 71 48 119.5t118 48.5t119 -49t49 -119v-15q0 -152 -75 -270.5t-202 -169.5q-15 -6 -30 -6q-27 0 -44.5 15.5t-17.5 39.5z" />
<glyph unicode="&#x201e;" d="M238 -264q0 42 51 59q110 38 110 139q0 45 -41 62q-39 21 -62.5 59t-23.5 86q0 71 48 119.5t118 48.5t119 -48.5t49 -119.5v-14q0 -152 -75 -270.5t-201 -169.5q-15 -6 -31 -6q-27 0 -44 15.5t-17 39.5zM647 -264q0 42 51 59q111 39 111 139q0 45 -41 62q-39 21 -62.5 59 t-23.5 86q0 71 48 119.5t118 48.5t119 -48.5t49 -119.5v-14q0 -152 -75 -270.5t-202 -169.5q-15 -6 -30 -6q-27 0 -44.5 15.5t-17.5 39.5z" />
<glyph unicode="&#x2022;" d="M354 614q0 120 83.5 204.5t203.5 84.5t204.5 -84.5t84.5 -204.5t-84.5 -203t-204.5 -83t-203.5 83t-83.5 203z" />
<glyph unicode="&#x2026;" d="M23 166q0 71 47.5 118.5t117.5 47.5t118 -48t48 -118t-48 -118t-118 -48t-117.5 47.5t-47.5 118.5zM473 166q0 70 47.5 118t118.5 48t118.5 -48t47.5 -118t-47.5 -118t-118.5 -48t-118.5 48t-47.5 118zM924 166q0 70 48 118t118 48t117.5 -47.5t47.5 -118.5t-47.5 -118.5 t-117.5 -47.5t-118 48t-48 118z" />
<glyph unicode="&#x202f;" horiz-adv-x="393" />
<glyph unicode="&#x2039;" d="M301 535q0 32 33 65l379 387q33 33 69 33q33 0 53.5 -20.5t20.5 -53.5q0 -38 -35 -76l-321 -335l321 -336q35 -38 35 -76q0 -33 -20.5 -53.5t-53.5 -20.5q-36 0 -69 33l-379 387q-33 33 -33 66z" />
<glyph unicode="&#x203a;" d="M322 123q0 39 34 76l322 336l-322 335q-34 37 -34 76q0 33 20 53.5t53 20.5q37 0 70 -33l379 -387q33 -33 33 -65q0 -33 -33 -66l-379 -387q-33 -33 -70 -33q-33 0 -53 20.5t-20 53.5z" />
<glyph unicode="&#x205f;" horiz-adv-x="491" />
<glyph unicode="&#x20ac;" d="M70 559q0 47 26.5 66.5t77.5 19.5h68v143h-68q-51 0 -77.5 19.5t-26.5 66.5q0 87 104 87h68q0 227 122.5 360t354.5 133q143 0 232.5 -47t158.5 -141q39 -53 39 -99q0 -44 -24.5 -65t-59.5 -21q-51 0 -74 45q-93 160 -272 160q-78 0 -135.5 -24.5t-90 -68t-48 -97.5 t-15.5 -119v-16h344q105 0 105 -87q0 -86 -105 -86h-344v-143h344q105 0 105 -86t-105 -86h-344v-16q0 -65 15.5 -119t48 -98t90 -68.5t135.5 -24.5q179 0 272 160q23 45 74 45q35 0 59.5 -21t24.5 -65q0 -45 -39 -98q-69 -94 -158.5 -141t-232.5 -47q-232 0 -354.5 133 t-122.5 360h-68q-51 0 -77.5 19.5t-26.5 66.5z" />
<glyph unicode="&#x2122;" d="M14 1374q0 60 66 60h424q65 0 65 -60q0 -59 -65 -59h-146v-553q0 -33 -19 -49.5t-46 -16.5q-29 0 -48.5 16.5t-19.5 49.5v553h-145q-34 0 -50 16.5t-16 42.5zM645 762v610q0 29 16.5 45.5t49.5 16.5q28 0 42 -12t27 -36l162 -274l162 274q12 24 27 36t43 12q65 0 65 -62 v-610q0 -33 -19.5 -49.5t-48.5 -16.5q-27 0 -46 16.5t-19 49.5v403l-121 -217q-15 -26 -43 -26t-43 26l-121 217v-403q0 -33 -19 -49.5t-46 -16.5q-29 0 -48.5 16.5t-19.5 49.5z" />
<glyph unicode="&#x25fc;" horiz-adv-x="1025" d="M0 0v1025h1025v-1025h-1025z" />
<glyph unicode="&#xfb01;" d="M80 942q0 40 26 61t70 21h123q0 115 31 201t83 134.5t112.5 71.5t127.5 23q103 0 168.5 -21.5t124.5 -68.5q60 -48 60 -96q0 -40 -24 -62t-62 -22q-33 0 -54 24q-47 51 -88.5 66.5t-115.5 15.5q-62 0 -104 -39t-58.5 -96.5t-16.5 -130.5h453q39 0 65.5 -23.5t26.5 -58.5 v-840q0 -44 -25 -73t-67 -29q-41 0 -66.5 29.5t-25.5 72.5v758h-361v-758q0 -44 -25 -73t-67 -29q-41 0 -66.5 29.5t-25.5 72.5v758h-123q-96 0 -96 82z" />
<glyph unicode="&#xfb02;" d="M80 942q0 40 26 61t70 21h123q0 93 20 165t53 117.5t79.5 75t96 41t105.5 11.5h283q43 0 67.5 -23t24.5 -65v-1244q0 -44 -25 -73t-67 -29q-41 0 -66.5 29.5t-25.5 72.5v1168h-193q-87 0 -127.5 -68.5t-40.5 -177.5h125q44 0 70.5 -21t26.5 -61q0 -41 -26 -61.5 t-71 -20.5h-125v-758q0 -44 -25 -73t-67 -29q-41 0 -66.5 29.5t-25.5 72.5v758h-123q-96 0 -96 82z" />
</font>
</defs>
</svg>
